<svg xmlns="http://www.w3.org/2000/svg" width="45" height="14" viewBox="0 0 45 14" fill="none">
  <path d="M23.6461 3.51771C23.6461 4.02226 23.2419 4.42853 22.7404 4.42853C22.2388 4.42853 21.8349 4.02226 21.8349 3.51771C21.8349 3.01316 22.225 2.60689 22.7404 2.60689C23.2561 2.62089 23.6461 3.0273 23.6461 3.51771ZM19.9125 5.35364V5.57791C19.9125 5.57791 19.4808 5.01708 18.5613 5.01708C17.043 5.01708 15.8587 6.18032 15.8587 7.79183C15.8587 9.38947 17.0291 10.5666 18.5613 10.5666C19.4947 10.5666 19.9125 9.99202 19.9125 9.99202V10.2302C19.9125 10.3423 19.9963 10.4262 20.1076 10.4262H21.2358V5.1568H20.1076C19.9963 5.15722 19.9125 5.2555 19.9125 5.35364ZM19.9125 8.73079C19.7037 9.0392 19.2857 9.30548 18.7843 9.30548C17.8928 9.30548 17.21 8.74493 17.21 7.79183C17.21 6.83886 17.8928 6.27832 18.7843 6.27832C19.2719 6.27832 19.7177 6.55859 19.9125 6.85286V8.73079ZM22.0718 5.15722H23.4091V10.4266H22.0718V5.15722ZM42.0485 5.01694C41.129 5.01694 40.6971 5.57777 40.6971 5.57777V2.62089H39.3598V10.4266H40.4883C40.5998 10.4266 40.6832 10.3284 40.6832 10.2303V9.99216C40.6832 9.99216 41.1151 10.5667 42.0343 10.5667C43.5529 10.5667 44.7369 9.38989 44.7369 7.79224C44.7369 6.1946 43.5529 5.01694 42.0485 5.01694ZM41.8256 9.29134C41.31 9.29134 40.9061 9.02534 40.6971 8.71679V6.83886C40.9061 6.55859 41.3519 6.26431 41.8256 6.26431C42.7171 6.26431 43.3997 6.82486 43.3997 7.77782C43.3997 8.73079 42.7172 9.29134 41.8256 9.29134ZM38.6634 7.30156V10.4406H37.3259V7.45555C37.3259 6.58687 37.0473 6.23632 36.2955 6.23632C35.8916 6.23632 35.4736 6.44659 35.2085 6.75501V10.4267H33.8715V5.15736H34.9299C35.0413 5.15736 35.125 5.2555 35.125 5.35364V5.57791C35.5151 5.17136 36.0304 5.01708 36.5457 5.01708C37.1309 5.01708 37.6186 5.1855 38.0086 5.52177C38.4821 5.91418 38.6634 6.41859 38.6634 7.30156ZM30.6251 5.01694C29.7059 5.01694 29.274 5.57777 29.274 5.57777V2.62089H27.9367V10.4266H29.0649C29.1764 10.4266 29.2601 10.3284 29.2601 10.2303V9.99216C29.2601 9.99216 29.692 10.5667 30.6112 10.5667C32.1298 10.5667 33.3139 9.38989 33.3139 7.79224C33.3278 6.19446 32.1437 5.01694 30.6251 5.01694ZM30.4022 9.29134C29.8869 9.29134 29.483 9.02534 29.274 8.71679V6.83886C29.483 6.55859 29.9288 6.26431 30.4022 6.26431C31.294 6.26431 31.9765 6.82486 31.9765 7.77782C31.9765 8.73079 31.294 9.29134 30.4022 9.29134ZM26.7804 5.01694C27.1842 5.01694 27.3933 5.08722 27.3933 5.08722V6.33431C27.3933 6.33431 26.2788 5.9559 25.5824 6.75486V10.4404H24.2449V5.15722H25.3734C25.4849 5.15722 25.5682 5.25536 25.5682 5.3535V5.57777C25.8193 5.28336 26.3626 5.01694 26.7804 5.01694ZM12.8917 9.95002C12.8221 9.78189 12.7524 9.59975 12.6828 9.44547C12.5712 9.19334 12.4597 8.95492 12.3624 8.73079L12.3485 8.71679C11.3871 6.61459 10.3565 4.48467 9.26971 2.38275L9.22796 2.29847C9.11366 2.08042 9.00227 1.86084 8.89382 1.63979C8.75437 1.38737 8.61521 1.12138 8.39226 0.868963C7.94651 0.308414 7.30565 0 6.62317 0C5.9265 0 5.2997 0.308415 4.84017 0.840825C4.63114 1.09296 4.47778 1.35924 4.33861 1.61165C4.22989 1.83257 4.1185 2.05214 4.00447 2.27034L3.96258 2.35461C2.88988 4.45653 1.84516 6.58659 0.88393 8.68865L0.869877 8.71651C0.77246 8.94106 0.660847 9.1792 0.549374 9.43119C0.479791 9.58547 0.410208 9.7536 0.340624 9.93574C0.159429 10.4542 0.10362 10.9447 0.173482 11.4494C0.326705 12.5005 1.0231 13.383 1.98446 13.7757C2.34671 13.93 2.72288 14 3.11283 14C3.2243 14 3.36347 13.986 3.47508 13.9719C3.93489 13.9159 4.40847 13.7619 4.86828 13.4956C5.43942 13.1732 5.98273 12.7109 6.59562 12.0382C7.20851 12.7109 7.76573 13.1732 8.32296 13.4956C8.7829 13.7619 9.25635 13.9159 9.71602 13.9719C9.82749 13.9861 9.96693 14 10.0784 14C10.4685 14 10.8584 13.93 11.2066 13.7757C12.1819 13.383 12.8644 12.4865 13.0178 11.4494C13.1284 10.959 13.0727 10.4687 12.8917 9.95002ZM6.60912 10.6787C5.85678 9.72575 5.36914 8.82892 5.20214 8.07238C5.13256 7.74997 5.1185 7.46969 5.16039 7.21742C5.18808 6.99314 5.27186 6.79686 5.38333 6.62873C5.64803 6.25059 6.09378 6.01218 6.60926 6.01218C7.12487 6.01218 7.58454 6.23645 7.83532 6.62873C7.94679 6.79686 8.03029 6.99328 8.0584 7.21742C8.10001 7.46983 8.0861 7.76397 8.01651 8.07238C7.84882 8.81492 7.36118 9.71189 6.60912 10.6787ZM12.1672 11.3374C12.0697 12.0661 11.5821 12.6969 10.8996 12.9772C10.5654 13.1172 10.203 13.1593 9.84099 13.1172C9.49279 13.075 9.14432 12.9629 8.78235 12.7529C8.28079 12.4723 7.77937 12.0382 7.19418 11.3934C8.11351 10.2584 8.67074 9.2212 8.87977 8.29652C8.97732 7.86197 8.99138 7.46969 8.94935 7.10514C8.89382 6.75487 8.76829 6.43245 8.57332 6.15218C8.1412 5.52135 7.4167 5.15722 6.60898 5.15722C5.80125 5.15722 5.07675 5.53563 4.64491 6.15218C4.44994 6.43245 4.32441 6.75487 4.26875 7.10514C4.21308 7.46969 4.22686 7.87597 4.33833 8.29652C4.54722 9.2212 5.11836 10.2723 6.02378 11.4074C5.45264 12.0521 4.93717 12.4866 4.43561 12.7669C4.07336 12.9772 3.7253 13.0893 3.37711 13.1312C3.00108 13.1733 2.63869 13.1172 2.31832 12.9912C1.63585 12.7109 1.14821 12.0801 1.05079 11.3514C1.00904 11.0011 1.03674 10.6508 1.17618 10.2584C1.21779 10.1182 1.28765 9.97816 1.35724 9.81003C1.45479 9.58575 1.56599 9.34733 1.6776 9.1092L1.69166 9.08134C2.65274 6.99314 3.68355 4.86308 4.75625 2.78916L4.798 2.70489C4.90961 2.49489 5.02109 2.27062 5.13242 2.06034C5.24389 1.83606 5.36914 1.62579 5.5225 1.44351C5.81503 1.10752 6.20497 0.925102 6.63695 0.925102C7.06892 0.925102 7.45887 1.10752 7.7514 1.44351C7.90476 1.62621 8.03001 1.83648 8.14148 2.06034C8.25309 2.27062 8.36457 2.49489 8.47576 2.70489L8.51765 2.78916C9.57399 4.8717 10.5911 6.97413 11.5685 9.09534V9.10934C11.6801 9.3339 11.7775 9.58589 11.889 9.81045C11.9586 9.9783 12.0283 10.1183 12.07 10.2586C12.1812 10.6226 12.223 10.9731 12.1672 11.3374Z" fill="white"/>
</svg>