<svg width="78" height="24" viewBox="0 0 78 24" fill="none" xmlns="http://www.w3.org/2000/svg">
<path d="M41.2504 6.03036C41.2504 6.8953 40.5576 7.59177 39.6978 7.59177C38.8379 7.59177 38.1456 6.8953 38.1456 6.03036C38.1456 5.16542 38.8143 4.46895 39.6978 4.46895C40.5819 4.49295 41.2504 5.18966 41.2504 6.03036ZM34.85 9.17766V9.56213C34.85 9.56213 34.1099 8.60071 32.5337 8.60071C29.9309 8.60071 27.9006 10.5948 27.9006 13.3574C27.9006 16.0962 29.907 18.1141 32.5337 18.1141C34.1338 18.1141 34.85 17.1292 34.85 17.1292V17.5374C34.85 17.7297 34.9936 17.8734 35.1845 17.8734H37.1186V8.84023H35.1845C34.9936 8.84095 34.85 9.00943 34.85 9.17766ZM34.85 14.9671C34.4921 15.4958 33.7755 15.9522 32.9159 15.9522C31.3876 15.9522 30.2172 14.9913 30.2172 13.3574C30.2172 11.7238 31.3876 10.7628 32.9159 10.7628C33.7518 10.7628 34.516 11.2433 34.85 11.7478V14.9671ZM38.5517 8.84095H40.8441V17.8741H38.5517V8.84095ZM72.7974 8.60047C71.2212 8.60047 70.4807 9.56189 70.4807 9.56189V4.49295H68.1882V17.8741H70.1228C70.3139 17.8741 70.4568 17.7059 70.4568 17.5376V17.1294C70.4568 17.1294 71.1973 18.1144 72.7731 18.1144C75.3764 18.1144 77.4062 16.097 77.4062 13.3581C77.4062 10.6193 75.3764 8.60047 72.7974 8.60047ZM72.4153 15.928C71.5313 15.928 70.839 15.472 70.4807 14.9431V11.7238C70.839 11.2433 71.6032 10.7388 72.4153 10.7388C73.9435 10.7388 75.1137 11.6998 75.1137 13.3334C75.1137 14.9671 73.9438 15.928 72.4153 15.928ZM66.9944 12.517V17.8981H64.7015V12.7809C64.7015 11.2918 64.2239 10.6908 62.9351 10.6908C62.2428 10.6908 61.5261 11.0513 61.0716 11.58V17.8744H58.7797V8.84119H60.594C60.7851 8.84119 60.9285 9.00943 60.9285 9.17766V9.56213C61.5972 8.86519 62.4806 8.60071 63.3641 8.60071C64.3673 8.60071 65.2032 8.88943 65.8719 9.46589C66.6836 10.1386 66.9944 11.0033 66.9944 12.517ZM53.2145 8.60047C51.6388 8.60047 50.8982 9.56189 50.8982 9.56189V4.49295H48.6058V17.8741H50.5399C50.731 17.8741 50.8744 17.7059 50.8744 17.5376V17.1294C50.8744 17.1294 51.6149 18.1144 53.1907 18.1144C55.794 18.1144 57.8237 16.097 57.8237 13.3581C57.8476 10.6191 55.8178 8.60047 53.2145 8.60047ZM52.8323 15.928C51.9489 15.928 51.2566 15.472 50.8982 14.9431V11.7238C51.2566 11.2433 52.0207 10.7388 52.8323 10.7388C54.3611 10.7388 55.531 11.6998 55.531 13.3334C55.531 14.9671 54.3611 15.928 52.8323 15.928ZM46.6235 8.60047C47.3158 8.60047 47.6742 8.72095 47.6742 8.72095V10.8588C47.6742 10.8588 45.7637 10.2101 44.5699 11.5798V17.8979H42.277V8.84095H44.2115C44.4026 8.84095 44.5455 9.00918 44.5455 9.17742V9.56189C44.9759 9.05718 45.9073 8.60047 46.6235 8.60047ZM22.8143 17.0572C22.695 16.7689 22.5755 16.4567 22.4562 16.1922C22.2648 15.76 22.0737 15.3513 21.907 14.9671L21.8831 14.9431C20.2351 11.3393 18.4682 7.68801 16.6052 4.08472L16.5336 3.94024C16.3377 3.56644 16.1467 3.19002 15.9608 2.81107C15.7218 2.37836 15.4832 1.92236 15.101 1.48965C14.3369 0.528709 13.2382 0 12.0683 0C10.874 0 9.79947 0.528712 9.01171 1.44141C8.65337 1.87365 8.39046 2.33012 8.15189 2.76283C7.96551 3.14154 7.77456 3.51796 7.57908 3.892L7.50727 4.03648C5.66836 7.63977 3.8774 11.2913 2.22959 14.8948L2.20549 14.9426C2.03849 15.3275 1.84716 15.7358 1.65606 16.1678C1.53678 16.4322 1.41749 16.7205 1.2982 17.0327C0.987584 17.9214 0.891912 18.7623 1.01167 19.6275C1.27434 21.4294 2.46816 22.9423 4.11621 23.6155C4.73721 23.88 5.38207 24 6.05055 24C6.24165 24 6.48022 23.976 6.67156 23.9518C7.4598 23.8558 8.27166 23.5918 9.0599 23.1353C10.039 22.5826 10.9704 21.7901 12.021 20.6369C13.0717 21.7901 14.027 22.5826 14.9822 23.1353C15.7707 23.5918 16.5823 23.8558 17.3703 23.9518C17.5614 23.9762 17.8004 24 17.9915 24C18.6603 24 19.3287 23.88 19.9257 23.6155C21.5976 22.9423 22.7675 21.4054 23.0304 19.6275C23.2201 18.7868 23.1247 17.9464 22.8143 17.0572ZM12.0442 18.3064C10.7545 16.6727 9.91851 15.1353 9.63223 13.8384C9.51294 13.2857 9.48885 12.8052 9.56066 12.3727C9.60814 11.9882 9.75175 11.6518 9.94285 11.3635C10.3966 10.7153 11.1608 10.3066 12.0444 10.3066C12.9283 10.3066 13.7163 10.6911 14.1462 11.3635C14.3373 11.6518 14.4805 11.9885 14.5287 12.3727C14.6 12.8054 14.5762 13.3097 14.4569 13.8384C14.1694 15.1113 13.3334 16.6489 12.0442 18.3064ZM21.5723 19.4355C21.4053 20.6847 20.5693 21.7661 19.3994 22.2466C18.8263 22.4866 18.2051 22.5588 17.5845 22.4866C16.9876 22.4143 16.3903 22.2221 15.7697 21.8621C14.9099 21.3812 14.0503 20.6369 13.0472 19.5315C14.6232 17.5859 15.5784 15.8078 15.9367 14.2226C16.104 13.4777 16.1281 12.8052 16.056 12.1802C15.9608 11.5798 15.7456 11.0271 15.4114 10.5466C14.6706 9.46517 13.4286 8.84095 12.044 8.84095C10.6593 8.84095 9.41728 9.48965 8.67699 10.5466C8.34275 11.0271 8.12756 11.5798 8.03213 12.1802C7.9367 12.8052 7.96032 13.5017 8.15141 14.2226C8.50951 15.8078 9.48861 17.6097 11.0408 19.5555C10.0617 20.6607 9.17799 21.4057 8.31818 21.8861C7.69717 22.2466 7.10051 22.4388 6.5036 22.5106C5.85898 22.5828 5.23774 22.4866 4.68855 22.2706C3.51859 21.7901 2.68264 20.7087 2.51564 19.4595C2.44406 18.8591 2.49154 18.2586 2.73059 17.5859C2.80192 17.3454 2.92168 17.1054 3.04097 16.8172C3.20821 16.4327 3.39883 16.024 3.59016 15.6158L3.61426 15.568C5.26184 11.9882 7.02894 8.33671 8.86785 4.78142L8.93942 4.63695C9.13075 4.27696 9.32185 3.89248 9.51271 3.53201C9.7038 3.14754 9.91851 2.78707 10.1814 2.47459C10.6829 1.8986 11.3514 1.58589 12.0919 1.58589C12.8324 1.58589 13.5009 1.8986 14.0024 2.47459C14.2653 2.78779 14.48 3.14826 14.6711 3.53201C14.8624 3.89248 15.0535 4.27696 15.2442 4.63695L15.316 4.78142C17.1268 8.35149 18.8705 11.9557 20.5459 15.592V15.616C20.7373 16.001 20.9043 16.433 21.0954 16.8179C21.2147 17.1057 21.3342 17.3457 21.4057 17.5861C21.5964 18.2101 21.6679 18.8111 21.5723 19.4355Z" fill="#718087"/>
</svg>
