<svg width="75" height="24" viewBox="0 0 75 24" fill="none" xmlns="http://www.w3.org/2000/svg">
<path d="M15.3198 11.4804C16.5513 11.5794 17.5858 12.0742 18.4725 13.0144C19.3592 13.9546 19.8025 15.2412 19.8025 16.8742C19.8025 18.8536 19.1621 20.4866 17.8321 21.6742C16.5021 22.8619 14.6302 23.4557 12.1179 23.4557H0V0H12.0687C14.1869 0 15.911 0.593815 17.1917 1.73196C18.4725 2.91959 19.1129 4.45361 19.1129 6.38351C19.1129 7.86804 18.7188 9.00619 17.8814 9.89691C17.0439 10.7876 16.2065 11.233 15.2706 11.332L15.3198 11.4804ZM5.76341 9.69897H10.7879C11.6253 9.69897 12.315 9.45155 12.8568 8.9567C13.3494 8.46186 13.645 7.86804 13.645 7.0268C13.645 6.28454 13.3987 5.74021 12.9061 5.29485C12.4135 4.84948 11.7731 4.65155 11.0342 4.65155H5.76341V9.69897ZM11.0835 18.8041C11.9702 18.8041 12.7091 18.5567 13.2017 18.1113C13.6943 17.666 13.9406 17.0227 13.9406 16.1814C13.9406 15.3897 13.6943 14.7959 13.1524 14.3505C12.6598 13.9052 11.9702 13.6577 11.182 13.6577H5.76341V18.8041H11.0835ZM39.7528 23.4557H34.1864V21.7732C32.8071 23.2577 30.9845 24 28.8171 24C26.7481 24 25.1226 23.3072 23.8911 21.9711C22.6596 20.6351 22.0192 18.8536 22.0192 16.6763V5.88866H27.5363V15.4887C27.5363 16.5278 27.8319 17.3691 28.3737 18.0124C28.9156 18.6557 29.6545 18.9526 30.5412 18.9526C31.6741 18.9526 32.5608 18.5567 33.2012 17.765C33.8416 16.9732 34.1371 15.7361 34.1371 14.0536V5.88866H39.7035L39.7528 23.4557ZM56.9445 23.4557H42.1665V22.4165L49.1122 10.3423H42.3635V5.88866H56.846V6.92783L49.9003 19.0021H56.8952V23.4557H56.9445ZM74.087 23.4557H59.3582V22.4165L66.2546 10.3423H59.506V5.88866H73.9884V6.92783L67.0428 19.0021H74.0377L74.087 23.4557Z" fill="#56656B"/>
</svg>
