<svg xmlns="http://www.w3.org/2000/svg" width="44" height="14" viewBox="0 0 44 14" fill="none">
  <path d="M8.93657 6.69691C9.65495 6.75464 10.2584 7.0433 10.7756 7.59175C11.2928 8.14021 11.5515 8.89072 11.5515 9.8433C11.5515 10.9979 11.1779 11.9505 10.4021 12.6433C9.62621 13.3361 8.53428 13.6825 7.0688 13.6825H0V0H7.04007C8.27567 0 9.28139 0.346392 10.0285 1.01031C10.7756 1.70309 11.1492 2.59794 11.1492 3.72371C11.1492 4.58969 10.9193 5.25361 10.4308 5.7732C9.9423 6.29278 9.4538 6.55258 8.90784 6.61031L8.93657 6.69691ZM3.36199 5.65773H6.29296C6.78145 5.65773 7.18374 5.5134 7.49983 5.22474C7.78718 4.93608 7.95959 4.58969 7.95959 4.09897C7.95959 3.66598 7.81591 3.34845 7.52856 3.08866C7.24121 2.82887 6.86766 2.7134 6.43663 2.7134H3.36199V5.65773ZM6.46537 10.9691C6.9826 10.9691 7.41362 10.8247 7.70097 10.5649C7.98832 10.3052 8.132 9.9299 8.132 9.43918C8.132 8.97732 7.98832 8.63093 7.67224 8.37113C7.38489 8.11134 6.9826 7.96701 6.52284 7.96701H3.36199V10.9691H6.46537ZM23.1891 13.6825H19.9421V12.701C19.1375 13.567 18.0743 14 16.81 14C15.6031 14 14.6548 13.5959 13.9365 12.8165C13.2181 12.0371 12.8445 10.9979 12.8445 9.72784V3.43505H16.0628V9.03505C16.0628 9.64124 16.2353 10.132 16.5513 10.5072C16.8674 10.8825 17.2985 11.0557 17.8157 11.0557C18.4766 11.0557 18.9938 10.8247 19.3674 10.3629C19.7409 9.90103 19.9133 9.17938 19.9133 8.19794V3.43505H23.1604L23.1891 13.6825ZM33.2176 13.6825H24.5971V13.0763L28.6488 6.03299H24.7121V3.43505H33.1602V4.04124L29.1085 11.0845H33.1889V13.6825H33.2176ZM43.2174 13.6825H34.6256V13.0763L38.6485 6.03299H34.7118V3.43505H43.1599V4.04124L39.1083 11.0845H43.1887L43.2174 13.6825Z" fill="white"/>
</svg>