<svg width="41" height="24" viewBox="0 0 41 24" fill="none" xmlns="http://www.w3.org/2000/svg">
<path d="M27.709 18.2139C27.2561 17.9342 26.7486 17.7889 26.2334 17.7914C25.0996 17.7914 24.3129 18.6895 24.3129 19.9018C24.3129 21.0776 25.0657 22.0142 26.2334 22.0142C26.7483 22.0155 27.2553 21.8712 27.709 21.5942V23.7179C27.1909 23.8986 26.6526 23.9932 26.1107 23.9989C24.1379 23.9989 22.4063 22.4506 22.4063 19.9007C22.4063 17.5386 23.973 15.8058 26.1107 15.8058C26.653 15.8074 27.192 15.9032 27.709 16.0898V18.2139ZM9.4021 18.2139C8.95021 17.9337 8.44335 17.7884 7.9288 17.7914C6.79272 17.7914 6.00662 18.6895 6.00662 19.9018C6.00662 21.0776 6.75998 22.0142 7.9288 22.0142C8.44295 22.0161 8.94938 21.8717 9.4021 21.5942V23.7179C8.88354 23.8993 8.34457 23.9939 7.8021 23.9989C5.83106 23.9989 4.10164 22.4506 4.10164 19.9007C4.10164 17.5386 5.66832 15.8058 7.80267 15.8058C8.34543 15.8069 8.88482 15.9027 9.4021 16.0898V18.2139ZM33.2261 17.8212C32.9861 17.8185 32.7481 17.8707 32.5261 17.9745C32.3041 18.0784 32.1027 18.2319 31.9336 18.4258C31.7646 18.6198 31.6314 18.8503 31.542 19.1039C31.4525 19.3574 31.4086 19.6288 31.4128 19.902C31.4084 20.1753 31.4521 20.4468 31.5415 20.7006C31.6309 20.9543 31.764 21.1851 31.9331 21.3793C32.1021 21.5734 32.3036 21.727 32.5257 21.8309C32.7478 21.9349 32.986 21.9871 33.2261 21.9845C33.4663 21.987 33.7044 21.9348 33.9266 21.8308C34.1487 21.7268 34.3503 21.5732 34.5194 21.3791C34.6885 21.185 34.8218 20.9543 34.9113 20.7006C35.0008 20.4469 35.0447 20.1753 35.0405 19.902C35.0445 19.6288 35.0004 19.3574 34.9108 19.1039C34.8212 18.8504 34.6879 18.6199 34.5188 18.426C34.3497 18.232 34.1482 18.0786 33.9262 17.9747C33.7042 17.8709 33.4661 17.8186 33.2261 17.8212ZM36.8988 19.902C36.8988 22.1654 35.3638 23.9995 33.2267 23.9995C31.0896 23.9995 29.5556 22.1653 29.5556 19.9013C29.5556 17.6422 31.0889 15.8063 33.2261 15.8063C35.3634 15.8063 36.8988 17.642 36.8988 19.902ZM20.2181 17.7452C20.192 17.7358 19.4536 17.5036 18.8469 17.5036C18.1442 17.5036 17.7619 17.7717 17.7619 18.1519C17.7619 18.6339 18.2775 18.8019 18.5658 18.9057L19.0497 19.081C20.1886 19.493 20.7069 20.3805 20.7069 21.3445C20.7069 23.3321 19.1714 24 17.8292 24C17.1938 23.9931 16.5603 23.9207 15.9364 23.7837V21.9628C16.0909 22.0071 16.8265 22.2575 17.5926 22.2575C18.4653 22.2575 18.8664 21.9666 18.8664 21.5188C18.8664 21.1178 18.5193 20.8864 18.0842 20.7308C17.9786 20.6903 17.8186 20.6334 17.7098 20.593C16.7332 20.2413 15.9187 19.5873 15.9187 18.2782C15.9187 16.7984 16.892 15.8048 18.5086 15.8048C19.085 15.8137 19.6586 15.8981 20.2181 16.0564V17.7452Z" fill="#666666"/>
<path d="M13.5669 23.8597H11.813V15.9469H13.5669V23.8597Z" fill="#666666"/>
<path d="M1.98568 6.74507C2.14888 6.93015 2.24091 7.18139 2.24159 7.44366L2.24167 9.52057C2.23594 9.77913 2.14167 10.0249 1.97898 10.2055C1.81629 10.3861 1.59806 10.4871 1.37084 10.4871C1.14362 10.4871 0.925381 10.3861 0.76269 10.2055C0.599999 10.0249 0.505729 9.77913 0.5 9.52057V7.44297C0.500914 7.18075 0.593124 6.92969 0.756413 6.74475C0.919701 6.55982 1.14075 6.4561 1.37108 6.45642C1.60145 6.45619 1.82248 6.56 1.98568 6.74507Z" fill="#666666"/>
<path d="M6.95802 4.33885C7.00179 4.45912 7.02431 4.58804 7.02431 4.71824V9.52094C7.02431 9.78384 6.93256 10.036 6.76925 10.2219C6.60593 10.4078 6.38444 10.5123 6.15348 10.5123C5.92252 10.5123 5.70102 10.4078 5.5377 10.2219C5.37439 10.036 5.28264 9.78384 5.28264 9.52094V4.71824C5.28264 4.58804 5.30517 4.45912 5.34893 4.33885C5.3927 4.21858 5.45684 4.10933 5.53771 4.01727C5.61857 3.92522 5.71457 3.85218 5.82023 3.80238C5.92588 3.75258 6.03912 3.72697 6.15348 3.72697C6.26783 3.72697 6.38107 3.75258 6.48672 3.80238C6.59238 3.85218 6.68838 3.92522 6.76924 4.01727C6.85011 4.10933 6.91426 4.21858 6.95802 4.33885Z" fill="#666666"/>
<path d="M11.5517 0.289339C11.7149 0.474549 11.8069 0.72584 11.8076 0.988152V11.4949C11.8018 11.7534 11.7076 11.9992 11.5449 12.1797C11.3822 12.3603 11.164 12.4613 10.9368 12.4613C10.7096 12.4613 10.4914 12.3603 10.3287 12.1797C10.166 11.9992 10.0717 11.7534 10.0659 11.4949V0.988152C10.0666 0.725749 10.1587 0.474366 10.322 0.289156C10.4853 0.103946 10.7065 9.14617e-05 10.937 0.000274385C11.1675 0.000182923 11.3885 0.104129 11.5517 0.289339Z" fill="#666666"/>
<path d="M16.5243 4.33872C16.568 4.45908 16.5904 4.58799 16.5903 4.71824L16.5907 4.71682V9.52011C16.5907 9.78302 16.4989 10.0352 16.3356 10.2211C16.1723 10.407 15.9508 10.5115 15.7198 10.5115C15.4889 10.5115 15.2674 10.407 15.1041 10.2211C14.9407 10.0352 14.849 9.78302 14.849 9.52011V4.71737C14.849 4.58717 14.8715 4.4583 14.9153 4.33803C14.959 4.21776 15.0232 4.10846 15.1041 4.0164C15.1849 3.92435 15.2809 3.85136 15.3866 3.80156C15.4922 3.75176 15.6055 3.7261 15.7198 3.7261C15.8342 3.72615 15.9475 3.75185 16.0531 3.80174C16.1588 3.85164 16.2548 3.92471 16.3356 4.01686C16.4165 4.10901 16.4806 4.21835 16.5243 4.33872Z" fill="#666666"/>
<path d="M21.1148 6.74608C21.2771 6.9312 21.3682 7.18212 21.368 7.44366V9.52057C21.368 9.78265 21.2766 10.034 21.1138 10.2193C20.951 10.4046 20.7302 10.5088 20.5 10.5088C20.2698 10.5088 20.049 10.4046 19.8862 10.2193C19.7234 10.034 19.632 9.78265 19.632 9.52057V7.44297C19.6328 7.18084 19.7249 6.92982 19.8881 6.74489C20.0513 6.55995 20.2722 6.45624 20.5025 6.45642C20.7322 6.45679 20.9525 6.56096 21.1148 6.74608Z" fill="#666666"/>
<path d="M25.8911 4.03552C26.0533 4.21552 26.1472 4.4605 26.153 4.71824V9.52094C26.153 9.65072 26.1305 9.77918 26.0869 9.89908C26.0433 10.019 25.9793 10.1279 25.8987 10.2197C25.8181 10.3115 25.7224 10.3842 25.6171 10.4339C25.5118 10.4836 25.3989 10.5091 25.2849 10.5091C25.0547 10.5091 24.834 10.405 24.6712 10.2197C24.5084 10.0344 24.4169 9.78302 24.4169 9.52094V4.71824C24.4227 4.4605 24.5166 4.21552 24.6788 4.03552C24.841 3.85552 25.0585 3.75478 25.2849 3.75478C25.5114 3.75478 25.7289 3.85552 25.8911 4.03552Z" fill="#666666"/>
<path d="M30.6848 0.289431C30.8475 0.474732 30.939 0.726069 30.939 0.988152V11.4949C30.9458 11.6732 30.9102 11.8503 30.8357 12.0075C30.7613 12.1646 30.6509 12.2958 30.5163 12.3873C30.3816 12.4789 30.2277 12.5272 30.0709 12.5272C29.9141 12.5272 29.7602 12.4789 29.6255 12.3873C29.4909 12.2958 29.3805 12.1645 29.3061 12.0074C29.2317 11.8503 29.1961 11.6732 29.2029 11.4949V0.988152C29.2029 0.726069 29.2944 0.474732 29.4572 0.289431C29.62 0.104129 29.8407 0 30.071 0C30.3012 0 30.522 0.104129 30.6848 0.289431Z" fill="#666666"/>
<path d="M35.6563 4.33743C35.7007 4.45803 35.7237 4.58744 35.7239 4.71824V9.52094C35.7239 9.65182 35.701 9.78142 35.6567 9.90219C35.6124 10.023 35.5475 10.1326 35.4658 10.2246C35.3841 10.3167 35.2872 10.3894 35.1806 10.4386C35.0741 10.4878 34.96 10.5125 34.845 10.5112C34.7309 10.5111 34.618 10.4854 34.5126 10.4356C34.4072 10.3858 34.3115 10.3128 34.2309 10.2208C34.1503 10.1288 34.0864 10.0197 34.0429 9.89963C33.9994 9.77954 33.9771 9.65086 33.9773 9.52094V4.7176C33.9773 4.45556 34.0687 4.20417 34.2314 4.01883C34.3941 3.83348 34.6148 3.72926 34.845 3.72912C34.9599 3.72793 35.0739 3.75258 35.1803 3.80174C35.2868 3.8509 35.3836 3.92352 35.4653 4.01544C35.547 4.10736 35.6119 4.21684 35.6563 4.33743Z" fill="#666666"/>
<path d="M40.2455 6.7442C40.4085 6.92973 40.5 7.1813 40.5 7.44366L40.4994 9.52066C40.4996 9.65063 40.4773 9.77941 40.4337 9.89954C40.3902 10.0197 40.3262 10.1289 40.2456 10.2209C40.165 10.3129 40.0692 10.386 39.9638 10.4359C39.8584 10.4858 39.7453 10.5115 39.6311 10.5116C39.5169 10.5116 39.4038 10.4859 39.2984 10.436C39.1929 10.3862 39.097 10.3131 39.0164 10.2211C38.9357 10.1291 38.8717 10.0199 38.8281 9.89968C38.7845 9.7795 38.7621 9.65067 38.7623 9.52066V7.44366C38.7623 7.1813 38.8538 6.92973 39.0168 6.7442C39.1797 6.55867 39.4007 6.4545 39.6311 6.45445C39.8616 6.4545 40.0826 6.55867 40.2455 6.7442Z" fill="#666666"/>
<path d="M39.4959 22.9407H39.1859H39.4959Z" fill="#666666"/>
<path d="M39.1859 22.9407V23.8586V22.9407Z" fill="#666666"/>
<path d="M39.1859 23.8586H39.0581H39.1859Z" fill="#666666"/>
<path d="M39.0581 23.8586V22.9415V23.8586Z" fill="#666666"/>
<path d="M39.0581 22.9415H38.7471H39.0581Z" fill="#666666"/>
<path d="M38.7471 22.9415V22.8168V22.9415Z" fill="#666666"/>
<path d="M38.7471 22.8168L39.4959 22.8167L38.7471 22.8168Z" fill="#666666"/>
<path d="M39.7603 22.8167L40.0342 23.6712L39.7603 22.8167Z" fill="#666666"/>
<path d="M40.0342 23.6712H40.0386H40.0342Z" fill="#666666"/>
<path d="M40.0386 23.6712L40.3036 22.8174L40.0386 23.6712Z" fill="#666666"/>
<path d="M40.3036 22.8174H40.4992H40.3036Z" fill="#666666"/>
<path d="M40.4992 22.8174V23.8584V22.8174Z" fill="#666666"/>
<path d="M40.4992 23.8584H40.3686H40.4992Z" fill="#666666"/>
<path d="M40.3686 23.8584V23.0046V23.8584Z" fill="#666666"/>
<path d="M40.3686 23.0046H40.3642H40.3686Z" fill="#666666"/>
<path d="M40.3642 23.0046L40.0864 23.8584L40.3642 23.0046Z" fill="#666666"/>
<path d="M40.0864 23.8584H39.9661H40.0864Z" fill="#666666"/>
<path d="M39.9661 23.8584L39.6946 23.0046L39.9661 23.8584Z" fill="#666666"/>
<path d="M39.6946 23.0046H39.6885H39.6946Z" fill="#666666"/>
<path d="M39.6885 23.0046V23.8584V23.0046Z" fill="#666666"/>
<path d="M39.6885 23.8584H39.5607H39.6885Z" fill="#666666"/>
<path d="M39.5607 23.8584L39.5609 22.8167L39.5607 23.8584Z" fill="#666666"/>
<path d="M39.7603 22.8167L40.0342 23.6712H40.0386L40.3036 22.8174H40.4992V23.8584H40.3686V23.0046H40.3642L40.0864 23.8584H39.9661L39.6946 23.0046H39.6885V23.8584H39.5607L39.5609 22.8167H39.7603Z" fill="#666666"/>
<path d="M39.4959 22.9407H39.1859V23.8586H39.0581V22.9415H38.7471V22.8168L39.4959 22.8167V22.9407Z" fill="#666666"/>
</svg>
