<svg width="50" height="24" viewBox="0 0 50 24" fill="none" xmlns="http://www.w3.org/2000/svg">
<path fill-rule="evenodd" clip-rule="evenodd" d="M15.0508 7.2243C15.0508 7.2243 16.4227 5.03228 19.6082 5.05263C22.7946 5.07299 25.7488 7.65851 25.6801 12.1086C25.6732 12.5193 25.6442 12.9116 25.5945 13.2872C26.4468 10.5049 30.6563 10.125 31.9134 10.1151C32.653 10.1151 34.8718 10.1053 34.8718 10.1053C34.8833 8.29873 34.4114 7.08984 31.828 7.03557C29.6259 6.98623 29.0603 8.31908 28.927 8.8421H26.229C26.9165 4.54996 32.003 5.07299 32.003 5.07299C37.3015 5.32463 37.4318 8.6287 37.4931 10.1848L37.4999 10.3514V18.9474L35.152 18.9622L35.0468 16.648C34.0457 18.1135 32.6989 18.9319 30.3343 18.9474C28.0324 18.9616 25.1085 17.8032 25.4439 14.1217C24.7143 17.2697 22.3843 18.9474 19.555 18.9474C16.1748 18.9474 15.0185 16.7572 15.0185 16.7572L14.9123 18.9474H12.4998V12.6316H2.54245C2.54245 12.6316 2.68516 16.925 6.32268 17.007C9.15081 17.068 9.66332 14.7588 9.66332 14.7588L12.2758 14.7484C12.2758 14.7484 11.9988 18.9474 6.31123 18.9474C-0.305487 18.9474 0.00388606 12.2566 0.00388606 12.2566C-0.0283801 10.7708 -0.00444222 5.05263 6.24975 5.05263C11.4837 5.05263 12.3759 9.38548 12.4998 11.4992V0H15.0508V7.2243ZM15.0675 12.0543C15.0675 12.0543 15.0019 17.0236 19.0269 16.9644C23.0467 16.9046 23.055 12.1579 23.055 12.1579C23.055 12.1579 23.1155 6.91838 19.0186 7.04112C14.9217 7.16447 15.0675 12.0543 15.0675 12.0543ZM6.40393 7.01151C2.80704 7.01151 2.62787 10.7572 2.62787 10.7572H9.98519C9.98519 10.7572 9.98519 7.00658 6.40393 7.01151ZM28.0676 14.7095C28.2186 17.073 30.778 17.0674 30.778 17.0674C35.3635 17.1359 34.8958 12.0796 34.8989 12.0796L32.003 12.0833C32.003 12.0833 27.9093 12.1869 28.0676 14.7095Z" fill="#FFFFFF"/>
<path d="M35.8728 5.05263H38.7937L43.0708 15.3904L47.3594 5.05263H50L42.2646 24H39.4374L41.676 18.3602L35.8728 5.05263Z" fill="#FFFFFF"/>
</svg>
