<svg width="24" height="24" viewBox="0 0 24 24" fill="none" xmlns="http://www.w3.org/2000/svg">
<path d="M8.89791 13.5469C8.80046 13.5469 6.65661 13.5469 5.68213 13.5469C5.16241 13.5469 5 13.3667 5 12.9161C5 11.7146 5 10.4831 5 9.2816C5 8.801 5.1949 8.65081 5.68213 8.65081H8.89791C8.89791 8.5607 8.89791 6.81852 8.89791 6.00751C8.89791 4.80601 9.12529 3.66458 9.77494 2.61327C10.4571 1.53191 11.4316 0.811014 12.6659 0.390488C13.478 0.12015 14.29 0 15.1671 0H18.3503C18.8051 0 19 0.180225 19 0.600751V4.02503C19 4.44556 18.8051 4.62578 18.3503 4.62578C17.4733 4.62578 16.5963 4.62578 15.7193 4.65582C14.8422 4.65582 14.3875 5.04631 14.3875 5.88736C14.355 6.78849 14.3875 7.65957 14.3875 8.59074H18.1555C18.6752 8.59074 18.8701 8.77096 18.8701 9.25156V12.8861C18.8701 13.3667 18.7077 13.5169 18.1555 13.5169C16.9861 13.5169 14.4849 13.5169 14.3875 13.5169V23.3091C14.3875 23.8198 14.2251 24 13.6404 24C12.2761 24 10.9443 24 9.58005 24C9.09281 24 8.89791 23.8198 8.89791 23.3692C8.89791 20.2153 8.89791 13.637 8.89791 13.5469Z" fill="white"/>
</svg>
