<svg xmlns="http://www.w3.org/2000/svg" width="59" height="14" viewBox="0 0 59 14" fill="none">
  <path opacity="0.8" d="M13.0875 9.35148V12.3697C11.9904 13.3345 9.36865 13.9085 7.41675 13.9085C5.46734 13.9085 0.0714722 12.7012 0.0714722 7.02845C0.0714722 1.35572 5.20742 0.133593 7.27929 0.133593C9.35366 0.133593 11.563 0.509631 12.8426 1.35572V4.01025C12.8426 4.34176 12.3852 4.31207 12.3852 4.01025C12.3552 3.55752 11.1356 0.843612 8.08654 0.902986C4.79504 0.969783 2.57071 3.53031 2.57071 6.90723C2.57071 10.2841 4.73256 13.1836 7.99657 13.0921C9.05625 13.0624 10.1609 12.7309 10.6958 12.2905L10.7082 9.35148C10.7082 8.50786 10.1909 8.20604 9.67356 8.20604C9.33616 8.20604 9.33616 7.72363 9.67356 7.72363H14.1222C14.4571 7.72363 14.4571 8.23573 14.1222 8.20604C13.6074 8.20604 13.0875 8.50786 13.0875 9.35148ZM43.0809 4.01272C43.0809 4.34423 42.746 4.31454 42.746 4.01272C42.7135 3.55999 41.4964 0.75455 38.4473 0.816399C35.1558 0.880721 32.929 3.53278 32.929 6.9097C32.929 10.2866 35.0634 13.2751 38.3249 13.1861C41.5864 13.0945 43.1409 9.89822 43.2634 9.47517C43.3858 9.05213 43.5983 9.11398 43.5983 9.44549V11.9194C42.2587 12.8843 39.727 13.9109 37.7775 13.9109C35.8281 13.9109 30.4323 12.7037 30.4323 7.03092C30.4323 1.35572 35.5532 0 37.6251 0C39.6995 0 41.8013 0.512105 43.0834 1.35572V4.01272H43.0809ZM29.2726 0.331507C29.76 0.331507 29.76 0.784238 29.2726 0.784238C28.7553 0.784238 28.2379 1.08606 28.2379 1.92967L28.178 8.52271C28.178 11.6794 25.5912 14 22.3997 14C19.2082 14 16.7164 11.6794 16.7164 8.52271V1.92967C16.7164 1.08358 16.1966 0.784238 15.6792 0.784238C15.1919 0.784238 15.1919 0.331507 15.6792 0.331507H20.1904C20.6777 0.331507 20.6777 0.784238 20.1904 0.784238C19.6705 0.784238 19.1532 1.08606 19.1532 1.92967L19.1482 9.2921C19.1482 11.5186 20.9876 13.3246 23.2369 13.3246C25.4863 13.3246 27.3107 11.0659 27.3107 8.84184L27.2007 1.92967C27.2007 1.08358 26.6834 0.784238 26.1636 0.784238C25.6787 0.784238 25.6787 0.331507 26.1636 0.331507H29.2726ZM57.9864 4.01272C57.9864 4.34423 57.6515 4.31454 57.6515 4.01272C57.6215 3.55999 56.4019 0.75455 53.3528 0.816399C50.0613 0.880721 47.8345 3.53278 47.8345 6.9097C47.8345 10.2866 49.9688 13.2751 53.2304 13.1861C56.4919 13.097 58.0464 9.89822 58.1689 9.47517C58.2913 9.05213 58.5063 9.11398 58.5063 9.44549V11.9194C57.1642 12.8843 54.6349 13.9109 52.683 13.9109C50.7336 13.9109 45.3377 12.7037 45.3377 7.03092C45.3377 1.35572 50.4587 0 52.5331 0C54.6049 0 56.7093 0.512105 57.9889 1.35572V4.01272H57.9864Z" fill="white"/>
</svg>