<svg width="101" height="24" viewBox="0 0 101 24" fill="none" xmlns="http://www.w3.org/2000/svg">
<path opacity="0.8" d="M23.0072 16.0311V21.2052C21.1263 22.8592 16.632 23.8431 13.2858 23.8431C9.94399 23.8431 0.693939 21.7735 0.693939 12.0488C0.693939 2.32409 9.49841 0.229016 13.0502 0.229016C16.6063 0.229016 20.3937 0.873653 22.5873 2.32409V6.87471C22.5873 7.44301 21.8033 7.39212 21.8033 6.87471C21.7518 6.0986 19.661 1.44619 14.4341 1.54798C8.79148 1.66248 4.97835 6.05195 4.97835 11.841C4.97835 17.63 8.68437 22.6005 14.2798 22.4435C16.0964 22.3926 17.9901 21.8244 18.907 21.0694L18.9284 16.0311C18.9284 14.5849 18.0415 14.0675 17.1547 14.0675C16.5763 14.0675 16.5763 13.2405 17.1547 13.2405H24.7809C25.355 13.2405 25.355 14.1184 24.7809 14.0675C23.8983 14.0675 23.0072 14.5849 23.0072 16.0311ZM74.4244 6.87895C74.4244 7.44725 73.8503 7.39636 73.8503 6.87895C73.7946 6.10285 71.7081 1.29351 66.4811 1.39954C60.8386 1.50981 57.0211 6.05619 57.0211 11.8452C57.0211 17.6342 60.68 22.7574 66.2712 22.6047C71.8624 22.4478 74.5273 16.9684 74.7372 16.2432C74.9471 15.5179 75.3113 15.624 75.3113 16.1923V20.4333C73.0149 22.0873 68.6748 23.8473 65.3329 23.8473C61.9911 23.8473 52.741 21.7777 52.741 12.053C52.741 2.32409 61.5198 0 65.0716 0C68.6276 0 72.2308 0.877894 74.4287 2.32409V6.87895H74.4244ZM50.753 0.568298C51.5885 0.568298 51.5885 1.34441 50.753 1.34441C49.8662 1.34441 48.9793 1.86181 48.9793 3.30801L48.8765 14.6104C48.8765 20.0219 44.4421 24 38.9709 24C33.4997 24 29.2281 20.0219 29.2281 14.6104V3.30801C29.2281 1.85757 28.337 1.34441 27.4501 1.34441C26.6146 1.34441 26.6146 0.568298 27.4501 0.568298H35.1835C36.0189 0.568298 36.0189 1.34441 35.1835 1.34441C34.2923 1.34441 33.4054 1.86181 33.4054 3.30801L33.3969 15.9293C33.3969 19.7462 36.5502 22.8422 40.4062 22.8422C44.2622 22.8422 47.3898 18.9701 47.3898 15.1574L47.2013 3.30801C47.2013 1.85757 46.3144 1.34441 45.4232 1.34441C44.5921 1.34441 44.5921 0.568298 45.4232 0.568298H50.753ZM99.9767 6.87895C99.9767 7.44725 99.4026 7.39636 99.4026 6.87895C99.3512 6.10285 97.2604 1.29351 92.0334 1.39954C86.3908 1.50981 82.5734 6.05619 82.5734 11.8452C82.5734 17.6342 86.2323 22.7574 91.8234 22.6047C97.4146 22.452 100.08 16.9684 100.289 16.2432C100.499 15.5179 100.868 15.624 100.868 16.1923V20.4333C98.5671 22.0873 94.2313 23.8473 90.8852 23.8473C87.5433 23.8473 78.2933 21.7777 78.2933 12.053C78.2933 2.32409 87.072 0 90.6281 0C94.1799 0 97.7874 0.877894 99.981 2.32409V6.87895H99.9767Z" fill="#718087"/>
</svg>
