<svg width="24" height="24" viewBox="0 0 24 24" fill="none" xmlns="http://www.w3.org/2000/svg">
<path d="M23.8553 7.11653L21.3003 5.57158V0.324003C21.3003 0.158064 21.166 0.0239389 21.0003 0.0239389H17.2125C17.047 0.0239389 16.9126 0.158064 16.9126 0.324003V2.91884L12.1562 0.043165C12.126 0.0250834 12.0928 0.0134104 12.0587 0.00791722C11.9823 -0.00993559 11.9022 0.00265292 11.8349 0.043165L0.144654 7.11653C0.054932 7.17055 0 7.26828 0 7.37311V9.84801C0 9.95558 0.0574497 10.0549 0.150605 10.1082C0.243989 10.1618 0.35866 10.1613 0.451358 10.1071L2.21193 9.07782V21.1678H1.37421C1.2085 21.1678 1.07438 21.3019 1.07438 21.4679V23.6999C1.07438 23.8656 1.2085 24 1.37421 24H22.6258C22.7915 24 22.9259 23.8656 22.9259 23.6999V21.4679C22.9259 21.3019 22.7915 21.1678 22.6258 21.1678H21.7881V9.0785L23.5489 10.1071C23.5956 10.1343 23.6477 10.1481 23.7002 10.1481C23.7517 10.1481 23.8032 10.1348 23.8494 10.1082C23.9428 10.0549 24 9.95558 24 9.84801V7.37311C24 7.26828 23.9451 7.17055 23.8553 7.11653ZM17.5125 0.623838H20.7002V5.2088L17.5125 3.28161V0.623838ZM22.3257 23.3999H1.67428V21.7677H22.3257V23.3999ZM14.7 21.1678H9.29998V11.7978H14.7V21.1678ZM21.1882 21.1678H15.3002V11.4978C15.3002 11.3318 15.1658 11.1977 15.0001 11.1977H8.99991C8.83443 11.1977 8.70008 11.3318 8.70008 11.4978V21.1678H2.81183V8.72694L11.9955 3.35737L21.1882 8.72786V21.1678ZM23.4001 9.32547L12.1468 2.75084C12.1001 2.7236 12.0477 2.70987 11.9955 2.70987C11.9431 2.70987 11.8909 2.7236 11.844 2.75084L0.599903 9.32501V7.54202L11.9955 0.647413L23.4001 7.54202V9.32547Z" fill="#6a5497"/>
</svg>
