<svg width="24" height="25" viewBox="0 0 24 25" fill="none" xmlns="http://www.w3.org/2000/svg">
<g clip-path="url(#clip0_60_140)">
<path d="M18 0.333344H6C2.70029 0.333344 0 3.03357 0 6.3332V18.3335C0 21.6322 2.70029 24.3333 6 24.3333H18C21.2997 24.3333 24 21.6322 24 18.3335V6.3332C24 3.03357 21.2997 0.333344 18 0.333344ZM21.9999 18.3335C21.9999 20.5384 20.2062 22.3333 18 22.3333H6C3.79471 22.3333 2.0001 20.5384 2.0001 18.3335V6.3332C2.0001 4.12767 3.79471 2.33339 6 2.33339H18C20.2062 2.33339 21.9999 4.12767 21.9999 6.3332V18.3335Z" fill="white"/>
<path d="M18.5002 7.33165C19.3287 7.33165 20.0002 6.66037 20.0002 5.8323C20.0002 5.00423 19.3287 4.33295 18.5002 4.33295C17.6718 4.33295 17.0002 5.00423 17.0002 5.8323C17.0002 6.66037 17.6718 7.33165 18.5002 7.33165Z" fill="white"/>
<path d="M11.7134 6.33337C8.39896 6.33337 5.71338 9.01919 5.71338 12.3332C5.71338 15.646 8.39896 18.3337 11.7134 18.3337C15.0268 18.3337 17.7134 15.646 17.7134 12.3332C17.7134 9.01919 15.0268 6.33337 11.7134 6.33337ZM11.7134 16.3336C9.50445 16.3336 7.71347 14.5427 7.71347 12.3332C7.71347 10.1238 9.50445 8.33342 11.7134 8.33342C13.9223 8.33342 15.7133 10.1238 15.7133 12.3332C15.7133 14.5427 13.9223 16.3336 11.7134 16.3336Z" fill="white"/>
</g>
<defs>
<clipPath id="clip0_60_140">
<rect width="24" height="24" fill="white" transform="translate(0 0.333344)"/>
</clipPath>
</defs>
</svg>
