<svg width="113" height="24" viewBox="0 0 113 24" fill="none" xmlns="http://www.w3.org/2000/svg">
<path d="M112.6 10.8578V8.88056H110.145V5.80673L110.062 5.83227L107.711 6.55164V8.88056H104.071V7.58228C104.036 7.09076 104.178 6.60298 104.472 6.20738C104.614 6.05204 104.788 5.93019 104.983 5.85067C105.177 5.77115 105.387 5.73596 105.597 5.74766C105.966 5.75258 106.329 5.83526 106.664 5.99029L106.754 6.03073V3.95029L106.712 3.93486C106.27 3.79891 105.809 3.73741 105.348 3.75289C104.674 3.74227 104.009 3.90205 103.414 4.2174C102.855 4.51827 102.394 4.97379 102.087 5.52951C101.767 6.12023 101.606 6.7832 101.617 7.45458V8.88056H99.9073V10.8578H101.617V19.1865H104.071V10.8578H107.711V16.1488C107.711 18.3303 108.739 19.4333 110.767 19.4333C111.117 19.4314 111.467 19.3927 111.809 19.3179C112.072 19.2732 112.327 19.1923 112.568 19.0774L112.6 19.0582V17.0629L112.5 17.1289C112.348 17.2253 112.181 17.2971 112.007 17.3417C111.85 17.3904 111.687 17.4181 111.522 17.4242C111.331 17.4409 111.138 17.4155 110.958 17.3498C110.777 17.2841 110.613 17.1796 110.478 17.0438C110.219 16.6544 110.102 16.1884 110.145 15.7231V10.8578H112.6ZM94.4258 17.4258C94.0342 17.4462 93.643 17.3779 93.2815 17.226C92.9199 17.0741 92.5974 16.8424 92.3379 16.5484C91.7997 15.8389 91.5335 14.9599 91.5877 14.071C91.5306 13.1614 91.7963 12.2607 92.3379 11.5277C92.5919 11.2315 92.9103 10.9972 93.2686 10.8427C93.6269 10.6883 94.0158 10.6177 94.4056 10.6364C94.7835 10.6183 95.1607 10.6854 95.5093 10.8327C95.8578 10.9801 96.1687 11.204 96.419 11.4878C96.9565 12.2143 97.2173 13.1088 97.1543 14.0104C97.2164 14.9151 96.9728 15.8146 96.4626 16.5644C96.2137 16.8567 95.8999 17.0867 95.5462 17.2361C95.1926 17.3855 94.8089 17.4512 94.4258 17.4258ZM94.5349 8.62836C93.8006 8.58797 93.0658 8.69849 92.3759 8.95308C91.686 9.20767 91.0555 9.60093 90.5235 10.1086C90.0258 10.6521 89.6413 11.2892 89.3925 11.9829C89.1436 12.6765 89.0354 13.4128 89.0741 14.1487C89.0389 14.8537 89.146 15.5585 89.389 16.2212C89.6321 16.8839 90.0062 17.4908 90.4889 18.0058C90.9919 18.4888 91.588 18.8642 92.2409 19.1092C92.8938 19.3542 93.5898 19.4636 94.2864 19.4307C95.0099 19.4662 95.733 19.3513 96.4099 19.093C97.0867 18.8347 97.7025 18.4388 98.2185 17.9302C98.712 17.392 99.0942 16.7615 99.343 16.075C99.5918 15.3884 99.7022 14.6594 99.6679 13.93C99.7452 12.5066 99.2565 11.1103 98.3084 10.0458C97.8118 9.56127 97.22 9.1852 96.5704 8.94147C95.9208 8.69773 95.2276 8.59165 94.5349 8.62995V8.62836ZM85.117 8.62995C84.0965 8.58678 83.0924 8.89706 82.2741 9.50842C81.9223 9.77553 81.6385 10.122 81.446 10.5196C81.2535 10.9172 81.1576 11.3547 81.1663 11.7964C81.1578 12.2339 81.2391 12.6685 81.4052 13.0734C81.5701 13.4463 81.8214 13.7746 82.1384 14.0311C82.5954 14.3747 83.0965 14.6553 83.6283 14.8654C84.0533 15.0324 84.4677 15.2253 84.8691 15.4433C85.0802 15.5534 85.2663 15.7062 85.4155 15.8918C85.5248 16.0668 85.5777 16.2711 85.5672 16.4771C85.5672 17.1688 85.0489 17.5061 83.9816 17.5061C83.5243 17.4953 83.0717 17.4125 82.6402 17.2608C82.1492 17.1004 81.6859 16.8655 81.2663 16.5644L81.1642 16.4915V18.8544L81.2014 18.872C81.6187 19.0542 82.0551 19.1889 82.5024 19.2737C82.959 19.3733 83.4244 19.4268 83.8916 19.4333C84.9636 19.4893 86.0225 19.1775 86.8931 18.5496C87.2508 18.2751 87.5385 17.9199 87.7327 17.513C87.9269 17.1061 88.0221 16.6591 88.0105 16.2084C88.0281 15.5652 87.8148 14.9371 87.4092 14.4376C86.8413 13.8479 86.1411 13.4019 85.3666 13.1367C84.845 12.962 84.3539 12.7067 83.9113 12.3801C83.8104 12.2751 83.7322 12.1504 83.6817 12.0138C83.6311 11.8772 83.6093 11.7316 83.6176 11.5862C83.6155 11.4428 83.6483 11.301 83.7132 11.1731C83.7781 11.0451 83.8731 10.9349 83.9901 10.8519C84.2958 10.6404 84.6633 10.5367 85.0345 10.5572C85.4562 10.5592 85.8752 10.6235 86.278 10.7482C86.6632 10.8605 87.0293 11.0302 87.364 11.2515L87.464 11.3202V9.08169L87.4257 9.06519C87.0703 8.92358 86.7007 8.82048 86.3233 8.75765C85.9249 8.6796 85.5203 8.63775 85.1144 8.63261L85.117 8.62995ZM74.7691 17.4258C74.3775 17.4462 73.9863 17.3779 73.6247 17.226C73.2632 17.0741 72.9407 16.8424 72.6812 16.5484C72.1438 15.8395 71.8779 14.9616 71.9315 14.0737C71.8744 13.164 72.1401 12.2634 72.6817 11.5303C72.9357 11.234 73.254 10.9997 73.6124 10.8452C73.9707 10.6908 74.3596 10.6203 74.7494 10.6391C75.1274 10.6209 75.5046 10.688 75.8531 10.8354C76.2016 10.9828 76.5125 11.2066 76.7628 11.4904C77.3004 12.2169 77.5612 13.1114 77.4982 14.013C77.5602 14.9178 77.3166 15.8172 76.8064 16.567C76.5576 16.8594 76.2438 17.0894 75.8901 17.2388C75.5364 17.3882 75.1527 17.4528 74.7696 17.4274L74.7691 17.4258ZM74.8792 8.63102C74.1449 8.59057 73.4102 8.70106 72.7202 8.95565C72.0303 9.21024 71.3999 9.60354 70.8679 10.1113C70.3701 10.6547 69.9855 11.2918 69.7365 11.9855C69.4876 12.6791 69.3793 13.4154 69.418 14.1514C69.3827 14.8564 69.4899 15.5613 69.733 16.224C69.9762 16.8866 70.3504 17.4935 70.8333 18.0084C71.3363 18.4915 71.9324 18.8669 72.5853 19.1119C73.2382 19.3569 73.9342 19.4663 74.6308 19.4333C75.3543 19.4689 76.0774 19.3539 76.7542 19.0956C77.431 18.8373 78.0469 18.4414 78.5628 17.9329C79.0564 17.3947 79.4386 16.7642 79.6873 16.0776C79.9361 15.3911 80.0465 14.6621 80.0122 13.9327C80.0895 12.5092 79.6006 11.1129 78.6522 10.0485C78.1557 9.564 77.5639 9.18797 76.9144 8.94424C76.265 8.70051 75.5719 8.59439 74.8792 8.63261V8.63102ZM65.6928 10.6657V8.88056H63.2687V19.1865H65.6928V13.9141C65.6581 13.1389 65.8697 12.3726 66.2973 11.7251C66.4687 11.4669 66.7022 11.2558 66.9763 11.1111C67.2505 10.9665 67.5565 10.8929 67.8664 10.8972C68.113 10.9009 68.358 10.9367 68.5954 11.0036C68.7951 11.048 68.9861 11.1253 69.1604 11.2324L69.2626 11.3063V8.863L69.2232 8.84598C68.919 8.73728 68.5967 8.68831 68.274 8.70178C67.6816 8.69595 67.1066 8.90202 66.6527 9.28282C66.2279 9.65595 65.9066 10.1325 65.72 10.6662L65.6928 10.6657ZM58.9274 8.63208C57.9003 8.61139 56.8851 8.85547 55.9797 9.34081C55.1471 9.799 54.4701 10.4952 54.0355 11.3404C53.5774 12.2593 53.3483 13.2754 53.3677 14.3019C53.3557 15.2277 53.579 16.1413 54.0168 16.957C54.4324 17.7302 55.0622 18.367 55.8307 18.7911C56.6445 19.2291 57.557 19.451 58.481 19.4355C59.4997 19.4682 60.509 19.232 61.4075 18.7507L61.4394 18.7326V16.5111L61.3372 16.5856C60.9744 16.8488 60.5748 17.0569 60.1512 17.2034C59.7792 17.3422 59.3867 17.4183 58.9897 17.4285C58.5705 17.4489 58.1518 17.3806 57.7607 17.2283C57.3697 17.0759 57.0152 16.8428 56.7203 16.5441C56.1328 15.8674 55.8325 14.9881 55.8834 14.0934C55.8388 13.1736 56.1515 12.2723 56.756 11.5777C57.0459 11.2679 57.3988 11.0238 57.791 10.8619C58.1832 10.7 58.6056 10.624 59.0296 10.6391C59.865 10.6522 60.6741 10.9337 61.3372 11.442L61.4389 11.516V9.1748L61.4059 9.15618C61.0529 8.97478 60.6749 8.84692 60.2842 8.77681C59.8386 8.68244 59.3845 8.63377 58.929 8.63155L58.9274 8.63208ZM51.6991 8.88003H49.2749V19.1865H51.6991V8.88003ZM50.512 4.48982C50.1279 4.48372 49.7569 4.6292 49.4792 4.89474C49.3395 5.02291 49.2287 5.17934 49.1541 5.35365C49.0795 5.52795 49.0429 5.71614 49.0467 5.90569C49.0424 6.09177 49.0783 6.27659 49.1517 6.44761C49.2252 6.61864 49.3345 6.77188 49.4723 6.89696C49.7537 7.15852 50.1259 7.30014 50.5099 7.29177C50.895 7.29944 51.2682 7.1582 51.5517 6.89749C51.6913 6.77331 51.8024 6.62035 51.8773 6.44914C51.9521 6.27792 51.989 6.09252 51.9854 5.90569C51.9873 5.71902 51.9509 5.53394 51.8783 5.36195C51.8057 5.18996 51.6985 5.03473 51.5634 4.90591C51.4248 4.76917 51.26 4.66183 51.0788 4.59033C50.8977 4.51883 50.704 4.48464 50.5094 4.48982H50.512ZM44.4607 8.11968V19.187H46.9348V4.80588H43.5109L39.1585 15.4874L34.9348 4.80588H31.3699V19.1859H33.6951V8.11862H33.7749L38.2348 19.1859H39.9906L44.3814 8.11862L44.4607 8.11968Z" fill="#718087"/>
<path d="M11.5849 11.4041H0.180817V0H11.5849V11.4041Z" fill="#718087"/>
<path d="M24.1766 11.4041H12.7725V0H24.1766V11.4041Z" fill="#718087"/>
<path d="M11.5849 24H0.180817V12.5959H11.5849V24Z" fill="#718087"/>
<path d="M24.1766 24H12.7725V12.5959H24.1766V24Z" fill="#718087"/>
</svg>
