<svg xmlns="http://www.w3.org/2000/svg" width="67" height="14" viewBox="0 0 67 14" fill="none">
  <path d="M66.4331 6.3337V5.18033H65.001V3.38726L64.9529 3.40215L63.5813 3.82179V5.18033H61.458V4.423C61.4376 4.13628 61.5206 3.85174 61.692 3.62097C61.7746 3.53036 61.8763 3.45928 61.9898 3.41289C62.1033 3.3665 62.2257 3.34598 62.3482 3.3528C62.5632 3.35567 62.7753 3.4039 62.9705 3.49434L63.0232 3.51793V2.30434L62.9984 2.29534C62.741 2.21603 62.4721 2.18016 62.2029 2.18919C61.81 2.18299 61.4219 2.2762 61.0747 2.46015C60.7485 2.63566 60.4798 2.90138 60.3006 3.22555C60.1143 3.57014 60.02 3.95687 60.0265 4.34851V5.18033H59.0293V6.3337H60.0265V11.1921H61.458V6.3337H63.5813V9.42013C63.5813 10.6927 64.181 11.3361 65.3641 11.3361C65.5685 11.335 65.7722 11.3124 65.9718 11.2688C66.1252 11.2427 66.2741 11.1955 66.4145 11.1285L66.4334 11.1173V9.95337L66.375 9.99185C66.2862 10.0481 66.1891 10.09 66.0873 10.116C65.9956 10.1444 65.9005 10.1606 65.8046 10.1641C65.6929 10.1739 65.5806 10.1591 65.4753 10.1207C65.37 10.0824 65.2745 10.0214 65.1953 9.94219C65.0446 9.71507 64.976 9.44326 65.001 9.17183V6.3337H66.4331ZM55.8317 10.165C55.6033 10.177 55.3751 10.1371 55.1642 10.0485C54.9533 9.95988 54.7651 9.82476 54.6138 9.65323C54.2998 9.23933 54.1445 8.72664 54.1761 8.20809C54.1428 7.67746 54.2978 7.15209 54.6138 6.72447C54.7619 6.55169 54.9476 6.41503 55.1567 6.32493C55.3657 6.23483 55.5926 6.19367 55.8199 6.20458C56.0404 6.19399 56.2604 6.23313 56.4637 6.31909C56.667 6.40506 56.8484 6.53565 56.9944 6.70119C57.308 7.12501 57.4601 7.64678 57.4233 8.17271C57.4595 8.7005 57.3175 9.22516 57.0198 9.66254C56.8747 9.83306 56.6916 9.96726 56.4853 10.0544C56.279 10.1415 56.0552 10.1798 55.8317 10.165ZM55.8953 5.03321C55.467 5.00965 55.0384 5.07412 54.6359 5.22263C54.2335 5.37114 53.8657 5.60054 53.5554 5.89669C53.265 6.21371 53.0408 6.58538 52.8956 6.99001C52.7504 7.39464 52.6873 7.82412 52.7099 8.25341C52.6893 8.66464 52.7518 9.0758 52.8936 9.46236C53.0354 9.84893 53.2536 10.203 53.5352 10.5034C53.8286 10.7851 54.1763 11.0041 54.5572 11.147C54.9381 11.2899 55.344 11.3538 55.7504 11.3346C56.1725 11.3553 56.5943 11.2882 56.9891 11.1376C57.3839 10.9869 57.7431 10.7559 58.0441 10.4593C58.332 10.1454 58.555 9.77756 58.7001 9.37707C58.8452 8.97658 58.9096 8.55134 58.8896 8.12584C58.9347 7.29551 58.6496 6.48103 58.0966 5.86006C57.8069 5.57741 57.4616 5.35804 57.0827 5.21586C56.7038 5.07368 56.2994 5.0118 55.8953 5.03414V5.03321ZM50.4016 5.03414C49.8063 5.00895 49.2205 5.18995 48.7432 5.54658C48.538 5.70239 48.3725 5.90451 48.2602 6.13645C48.1479 6.36838 48.092 6.62357 48.097 6.88122C48.092 7.13644 48.1395 7.38997 48.2364 7.62613C48.3325 7.84368 48.4792 8.0352 48.6641 8.18482C48.9307 8.38522 49.223 8.54891 49.5331 8.67149C49.7811 8.76887 50.0228 8.88144 50.257 9.00857C50.3801 9.07283 50.4887 9.16192 50.5757 9.27022C50.6395 9.37228 50.6703 9.49146 50.6642 9.61164C50.6642 10.0151 50.3619 10.2119 49.7392 10.2119C49.4725 10.2056 49.2085 10.1573 48.9568 10.0688C48.6704 9.97526 48.4001 9.83823 48.1554 9.66254L48.0958 9.62002V10.9984L48.1175 11.0087C48.3609 11.1149 48.6154 11.1936 48.8764 11.243C49.1427 11.3011 49.4142 11.3323 49.6868 11.3361C50.3121 11.3688 50.9298 11.1869 51.4376 10.8206C51.6463 10.6605 51.8141 10.4533 51.9274 10.2159C52.0407 9.97859 52.0962 9.7178 52.0894 9.45489C52.0997 9.07973 51.9753 8.71328 51.7387 8.42195C51.4074 8.07793 50.999 7.81779 50.5472 7.66307C50.2429 7.56117 49.9564 7.41225 49.6983 7.2217C49.6394 7.16045 49.5938 7.0877 49.5643 7.00802C49.5348 6.92834 49.5221 6.84344 49.5269 6.75861C49.5257 6.67495 49.5448 6.59225 49.5827 6.51762C49.6205 6.443 49.676 6.37871 49.7442 6.33029C49.9226 6.2069 50.1369 6.1464 50.3535 6.15834C50.5994 6.15951 50.8439 6.19706 51.0788 6.26977C51.3035 6.33527 51.5171 6.43426 51.7123 6.56339L51.7707 6.60342V5.29765L51.7483 5.28803C51.541 5.20542 51.3254 5.14528 51.1052 5.10863C50.8728 5.0631 50.6368 5.03869 50.4 5.03569L50.4016 5.03414ZM44.3653 10.165C44.1368 10.177 43.9087 10.1371 43.6978 10.0485C43.4869 9.95988 43.2987 9.82476 43.1474 9.65323C42.8339 9.2397 42.6787 8.72763 42.71 8.20965C42.6767 7.67901 42.8317 7.15363 43.1477 6.72602C43.2958 6.55318 43.4815 6.41649 43.6905 6.32638C43.8996 6.23628 44.1264 6.19515 44.3538 6.20614C44.5743 6.19555 44.7943 6.23468 44.9976 6.32065C45.2009 6.40661 45.3823 6.5372 45.5283 6.70275C45.8419 7.12654 45.994 7.64833 45.9572 8.17426C45.9935 8.70205 45.8514 9.22671 45.5537 9.66409C45.4086 9.83463 45.2255 9.96884 45.0192 10.056C44.8129 10.1431 44.5891 10.1808 44.3656 10.166L44.3653 10.165ZM44.4295 5.03476C44.0012 5.01117 43.5726 5.07562 43.1701 5.22413C42.7677 5.37264 42.3999 5.60207 42.0896 5.89824C41.7992 6.21524 41.5749 6.5869 41.4296 6.99153C41.2844 7.39616 41.2212 7.82566 41.2438 8.25496C41.2232 8.66622 41.2857 9.0774 41.4276 9.46397C41.5694 9.85054 41.7877 10.2046 42.0694 10.5049C42.3628 10.7867 42.7106 11.0057 43.0914 11.1486C43.4723 11.2915 43.8783 11.3553 44.2846 11.3361C44.7067 11.3568 45.1285 11.2898 45.5233 11.1391C45.9181 10.9884 46.2773 10.7575 46.5783 10.4608C46.8662 10.1469 47.0892 9.77911 47.2343 9.37862C47.3794 8.97814 47.4438 8.55289 47.4238 8.12739C47.4689 7.29701 47.1837 6.4825 46.6305 5.86161C46.3408 5.579 45.9956 5.35965 45.6168 5.21747C45.2379 5.07529 44.8336 5.01339 44.4295 5.03569V5.03476ZM39.0708 6.22166V5.18033H37.6567V11.1921H39.0708V8.11653C39.0506 7.66434 39.174 7.21736 39.4234 6.83962C39.5234 6.68901 39.6596 6.56587 39.8195 6.4815C39.9794 6.39713 40.1579 6.35421 40.3387 6.35667C40.4826 6.35886 40.6255 6.37973 40.7639 6.41875C40.8805 6.44464 40.9919 6.48975 41.0936 6.55221L41.1532 6.59536V5.17008L41.1302 5.16015C40.9528 5.09674 40.7647 5.06818 40.5765 5.07604C40.2309 5.07264 39.8955 5.19284 39.6307 5.41498C39.3829 5.63264 39.1955 5.91061 39.0866 6.22197L39.0708 6.22166ZM35.1243 5.03538C34.5252 5.02331 33.933 5.16569 33.4048 5.44881C32.9191 5.71608 32.5242 6.12221 32.2707 6.61522C32.0035 7.15125 31.8698 7.74396 31.8812 8.3428C31.8741 8.88281 32.0044 9.41575 32.2598 9.8916C32.5022 10.3426 32.8696 10.7141 33.3179 10.9615C33.7926 11.217 34.3249 11.3464 34.8639 11.3374C35.4581 11.3564 36.0469 11.2187 36.571 10.9379L36.5896 10.9273V9.6315L36.53 9.67495C36.3184 9.82844 36.0853 9.94987 35.8382 10.0353C35.6212 10.1163 35.3922 10.1607 35.1606 10.1666C34.9161 10.1785 34.6718 10.1387 34.4437 10.0498C34.2156 9.96094 34.0089 9.82495 33.8369 9.65075C33.4941 9.25598 33.319 8.74307 33.3486 8.22113C33.3226 7.68462 33.505 7.15882 33.8577 6.75365C34.0268 6.57292 34.2326 6.43054 34.4614 6.33609C34.6902 6.24164 34.9366 6.19733 35.1839 6.20614C35.6713 6.21379 36.1432 6.378 36.53 6.6745L36.5893 6.71764V5.35197L36.5701 5.34111C36.3642 5.23529 36.1437 5.16071 35.9158 5.1198C35.6558 5.06475 35.391 5.03636 35.1253 5.03507L35.1243 5.03538ZM30.9078 5.18002H29.4937V11.1921H30.9078V5.18002ZM30.2153 2.61906C29.9913 2.6155 29.7748 2.70036 29.6129 2.85526C29.5314 2.93003 29.4667 3.02128 29.4232 3.12296C29.3797 3.22464 29.3584 3.33441 29.3605 3.44499C29.3581 3.55353 29.379 3.66134 29.4218 3.76111C29.4647 3.86087 29.5284 3.95026 29.6089 4.02323C29.773 4.1758 29.9901 4.25842 30.2141 4.25353C30.4387 4.25801 30.6564 4.17562 30.8218 4.02354C30.9033 3.9511 30.9681 3.86187 31.0117 3.762C31.0554 3.66212 31.0769 3.55397 31.0748 3.44499C31.0759 3.3361 31.0547 3.22813 31.0123 3.1278C30.97 3.02748 30.9075 2.93693 30.8287 2.86178C30.7478 2.78201 30.6516 2.7194 30.546 2.67769C30.4403 2.63598 30.3273 2.61604 30.2138 2.61906H30.2153ZM26.6854 4.73648V11.1924H28.1286V2.80343H26.1313L23.5924 9.03433L21.1286 2.80343H19.0491V11.1918H20.4054V4.73586H20.452L23.0536 11.1918H24.0779L26.6391 4.73586L26.6854 4.73648Z" fill="white"/>
  <path d="M7.50787 6.6524H0.855469V0H7.50787V6.6524Z" fill="white"/>
  <path d="M14.853 6.6524H8.20063V0H14.853V6.6524Z" fill="white"/>
  <path d="M7.50787 14H0.855469V7.3476H7.50787V14Z" fill="white"/>
  <path d="M14.853 14H8.20063V7.3476H14.853V14Z" fill="white"/>
</svg>