<svg width="28" height="28" viewBox="0 0 28 28" fill="none" xmlns="http://www.w3.org/2000/svg">
<path d="M21.9715 28V5.59322H0V28H5.11773V26.6707C5.11773 24.9992 6.67821 23.6368 8.56786 23.6368H13.4032C15.2953 23.6368 16.8665 24.9992 16.8665 26.6707V28H21.9715ZM6.06666 19.9896C6.06666 20.1084 6.04122 20.2321 5.98991 20.3419C5.93861 20.4517 5.86678 20.5531 5.77197 20.6375C5.67716 20.7215 5.56265 20.7851 5.43828 20.8306C5.31433 20.876 5.1752 20.8985 5.04057 20.8985H2.61653C2.48232 20.8985 2.34318 20.876 2.21882 20.8306C2.09487 20.7851 1.98036 20.7215 1.88555 20.6375C1.79032 20.5535 1.71891 20.452 1.6676 20.3419C1.6163 20.2321 1.59044 20.1088 1.59044 19.9896V17.8647C1.59044 17.7458 1.61589 17.6225 1.6676 17.5124C1.71891 17.4025 1.79073 17.3011 1.88555 17.2167C1.98036 17.1328 2.09487 17.0691 2.21882 17.0237C2.34318 16.9782 2.48232 16.9553 2.61653 16.9553H5.04057C5.17478 16.9553 5.31392 16.9779 5.43828 17.0237C5.56224 17.0691 5.67675 17.1328 5.77197 17.2167C5.86678 17.3011 5.93861 17.4022 5.98991 17.5124C6.04122 17.6222 6.06666 17.7454 6.06666 17.8647V19.9896ZM6.06666 13.7058C6.06666 13.8247 6.04122 13.948 5.98991 14.0582C5.93861 14.168 5.86678 14.2694 5.77197 14.3534C5.67716 14.4378 5.56265 14.501 5.43828 14.5465C5.31433 14.5919 5.1752 14.6148 5.04057 14.6148H2.61653C2.48232 14.6148 2.34318 14.5923 2.21882 14.5465C2.09487 14.501 1.98036 14.4374 1.88555 14.3534C1.79032 14.2694 1.71891 14.168 1.6676 14.0582C1.6163 13.9484 1.59044 13.8247 1.59044 13.7058V11.5697C1.59044 11.4508 1.61589 11.3388 1.6676 11.2286C1.71891 11.1188 1.79073 11.0174 1.88555 10.933C1.98036 10.849 2.09487 10.7741 2.21882 10.7283C2.34318 10.6829 2.48232 10.66 2.61653 10.66H5.04057C5.17478 10.66 5.31392 10.6825 5.43828 10.7283C5.56224 10.7738 5.67675 10.8487 5.77197 10.933C5.86678 11.017 5.93861 11.1185 5.98991 11.2286C6.04122 11.3384 6.06666 11.4504 6.06666 11.5697V13.7058ZM8.74764 11.4675C8.74764 11.3486 8.77308 11.2254 8.8248 11.1152C8.8761 11.0054 8.94793 10.9039 9.04274 10.8196C9.13796 10.7356 9.25206 10.672 9.37643 10.6265C9.50038 10.5811 9.63993 10.5585 9.77414 10.5585H11.9417C12.0759 10.5585 12.215 10.5811 12.3394 10.6265C12.4633 10.672 12.5778 10.7356 12.6731 10.8196C12.7679 10.9036 12.8397 11.005 12.891 11.1152C12.9423 11.225 12.9682 11.3483 12.9682 11.4675V13.3764C12.9682 13.4953 12.9427 13.6073 12.891 13.7171C12.8397 13.8269 12.7679 13.9284 12.6731 14.0127C12.5782 14.0967 12.4637 14.1716 12.3394 14.2171C12.2154 14.2625 12.0759 14.2854 11.9417 14.2854H9.77414C9.63993 14.2854 9.50038 14.2629 9.37643 14.2171C9.25247 14.1716 9.13796 14.0967 9.04274 14.0127C8.94793 13.9287 8.8761 13.8273 8.8248 13.7171C8.77349 13.6073 8.74764 13.4953 8.74764 13.3764V11.4675ZM13.0314 19.7169C13.0314 19.8358 13.0059 19.9477 12.9542 20.0579C12.9029 20.1677 12.8311 20.2692 12.7363 20.3531C12.6414 20.4375 12.5269 20.512 12.403 20.5579C12.2786 20.6033 12.1395 20.6258 12.0053 20.6258H9.77332C9.6391 20.6258 9.49956 20.6033 9.3756 20.5579C9.25165 20.5124 9.13714 20.4375 9.04192 20.3531C8.94711 20.2692 8.87528 20.1677 8.82398 20.0579C8.77267 19.9481 8.74682 19.8361 8.74682 19.7169V17.7512C8.74682 17.6323 8.77226 17.5091 8.82398 17.3989C8.87528 17.2891 8.94711 17.1877 9.04192 17.1037C9.13714 17.0197 9.25124 16.956 9.3756 16.9106C9.49956 16.8651 9.6391 16.8422 9.77332 16.8422H12.0053C12.1395 16.8422 12.2786 16.8648 12.403 16.9106C12.5269 16.956 12.6414 17.0197 12.7363 17.1037C12.8315 17.1877 12.9029 17.2891 12.9542 17.3989C13.0055 17.5091 13.0314 17.6323 13.0314 17.7512V19.7169ZM15.9044 11.5697C15.9044 11.4508 15.9299 11.3388 15.9816 11.2286C16.0329 11.1188 16.1047 11.0174 16.1995 10.933C16.2943 10.849 16.4088 10.7741 16.5328 10.7283C16.6572 10.6829 16.7963 10.66 16.9305 10.66H19.3546C19.4888 10.66 19.6279 10.6825 19.7523 10.7283C19.8762 10.7738 19.9907 10.8487 20.0859 10.933C20.1808 11.017 20.2526 11.1185 20.3039 11.2286C20.3552 11.3384 20.3806 11.4504 20.3806 11.5697V13.7058C20.3806 13.8247 20.3552 13.948 20.3039 14.0582C20.2526 14.168 20.1808 14.2694 20.0859 14.3534C19.9911 14.4378 19.8766 14.501 19.7523 14.5465C19.6283 14.5919 19.4888 14.6148 19.3546 14.6148H16.9305C16.7963 14.6148 16.6572 14.5923 16.5328 14.5465C16.4088 14.501 16.2943 14.4374 16.1995 14.3534C16.1043 14.2694 16.0329 14.168 15.9816 14.0582C15.9303 13.9484 15.9044 13.8247 15.9044 13.7058V11.5697ZM16.5332 20.8302C16.4093 20.7847 16.2947 20.7211 16.1999 20.6371C16.1047 20.5531 16.0333 20.4517 15.982 20.3415C15.9307 20.2317 15.9048 20.1084 15.9048 19.9892V17.8647C15.9048 17.7458 15.9303 17.6225 15.982 17.5124C16.0333 17.4025 16.1051 17.3011 16.1999 17.2167C16.2947 17.1328 16.4093 17.0691 16.5332 17.0237C16.6576 16.9782 16.7967 16.9553 16.9309 16.9553H19.355C19.4892 16.9553 19.6283 16.9779 19.7527 17.0237C19.8766 17.0691 19.9911 17.1328 20.0864 17.2167C20.1812 17.3011 20.253 17.4022 20.3043 17.5124C20.3556 17.6222 20.3811 17.7454 20.3811 17.8647V19.9896C20.3811 20.1084 20.3556 20.2321 20.3043 20.3419C20.253 20.4517 20.1812 20.5531 20.0864 20.6375C19.9915 20.7215 19.877 20.7851 19.7527 20.8306C19.6287 20.876 19.4892 20.8985 19.355 20.8985H16.9305C16.7963 20.8985 16.6572 20.8756 16.5332 20.8302Z" fill="#6a5497"/>
<path d="M26.6037 0H5.44197L1.3729 3.77416H22.5202L26.6037 0Z" fill="#6a5497"/>
<path d="M24.0229 26.6387L28 22.9496V1.33695L24.0229 5.01294V26.6387Z" fill="#6a5497"/>
<path d="M8.5658 25.4508C7.78761 25.4508 7.16621 26.0024 7.16621 26.6725V27.9971H14.8085V26.6725C14.8085 26.0024 14.1888 25.4508 13.4048 25.4508H8.5658Z" fill="#6a5497"/>
</svg>
