<svg width="28" height="28" viewBox="0 0 28 28" fill="none" xmlns="http://www.w3.org/2000/svg">
<path d="M7.76982 26.3114L6.0691 28L0 22.1286L4.34822 17.8429C5.22881 16.9685 6.33999 16.3586 7.55407 16.0831C8.76816 15.8077 10.0359 15.8779 11.2116 16.2857L12.167 16.6171H18.0289C18.2768 16.617 18.5222 16.6664 18.7505 16.7622C18.9789 16.8581 19.1855 16.9986 19.3581 17.1753C19.5307 17.352 19.6657 17.5613 19.7553 17.7908C19.8448 18.0204 19.8869 18.2654 19.8792 18.5114C19.8511 18.9977 19.6348 19.4544 19.2755 19.7861C18.9162 20.1178 18.4417 20.2989 17.9512 20.2914H14.4346C14.2438 20.2914 14.0608 20.3667 13.9259 20.5006C13.791 20.6346 13.7152 20.8163 13.7152 21.0057C13.7152 21.1952 13.791 21.3768 13.9259 21.5108C14.0608 21.6447 14.2438 21.72 14.4346 21.72H17.9627C18.8233 21.7242 19.6525 21.3996 20.2788 20.8135C20.905 20.2274 21.2802 19.4246 21.3267 18.5714C21.3267 18.5571 21.3267 18.5429 21.3267 18.5257L24.5901 14.8771C24.9215 14.4952 25.3885 14.2548 25.8938 14.2059C26.3992 14.1569 26.9042 14.3032 27.3037 14.6143C27.5015 14.7769 27.6644 14.9771 27.7829 15.2032C27.9014 15.4293 27.9731 15.6767 27.9938 15.9307C28.0144 16.1848 27.9836 16.4404 27.9032 16.6824C27.8227 16.9245 27.6942 17.1481 27.5253 17.34L21.0102 24.7686C20.5802 25.2579 20.0493 25.6499 19.4536 25.9181C18.8578 26.1862 18.211 26.3243 17.5569 26.3229L7.76982 26.3114ZM21.2231 10.16C21.2231 9.80006 21.0791 9.45487 20.8228 9.20036C20.5664 8.94584 20.2187 8.80286 19.8562 8.80286H17.8418V6.80286C17.8257 6.45407 17.6748 6.12487 17.4205 5.8837C17.1662 5.64254 16.828 5.50797 16.4763 5.50797C16.1247 5.50797 15.7865 5.64254 15.5322 5.8837C15.2779 6.12487 15.127 6.45407 15.1109 6.80286V8.80286H13.0965C12.9119 8.79444 12.7275 8.82327 12.5544 8.88761C12.3814 8.95194 12.2233 9.05045 12.0896 9.17716C11.956 9.30388 11.8497 9.45618 11.777 9.62487C11.7043 9.79355 11.6669 9.97511 11.6669 10.1586C11.6669 10.342 11.7043 10.5236 11.777 10.6923C11.8497 10.861 11.956 11.0133 12.0896 11.14C12.2233 11.2667 12.3814 11.3652 12.5544 11.4295C12.7275 11.4939 12.9119 11.5227 13.0965 11.5143H15.1109V13.5143C15.127 13.8631 15.2779 14.1923 15.5322 14.4334C15.7865 14.6746 16.1247 14.8092 16.4763 14.8092C16.828 14.8092 17.1662 14.6746 17.4205 14.4334C17.6748 14.1923 17.8257 13.8631 17.8418 13.5143V11.5143H19.8562C20.2182 11.5143 20.5655 11.3717 20.8218 11.1178C21.078 10.8639 21.2224 10.5194 21.2231 10.16ZM8.11803 2.64V4.11429H6.636C6.36888 4.11429 6.11269 4.21964 5.92381 4.40718C5.73492 4.59472 5.62881 4.84907 5.62881 5.11429C5.62881 5.3795 5.73492 5.63386 5.92381 5.82139C6.11269 6.00893 6.36888 6.11429 6.636 6.11429H8.1209V7.58857C8.1209 7.85379 8.22702 8.10814 8.41591 8.29568C8.60479 8.48322 8.86098 8.58857 9.1281 8.58857C9.39523 8.58857 9.65141 8.48322 9.8403 8.29568C10.0292 8.10814 10.1353 7.85379 10.1353 7.58857V6.10857H11.6116C11.8787 6.10857 12.1349 6.00321 12.3238 5.81568C12.5127 5.62814 12.6188 5.37379 12.6188 5.10857C12.6188 4.84335 12.5127 4.589 12.3238 4.40146C12.1349 4.21393 11.8787 4.10857 11.6116 4.10857H10.1267V2.64C10.1267 2.37478 10.0206 2.12043 9.83167 1.93289C9.64278 1.74536 9.3866 1.64 9.11947 1.64C8.85235 1.64 8.59616 1.74536 8.40727 1.93289C8.21839 2.12043 8.11227 2.37478 8.11227 2.64H8.11803ZM20.8231 0C20.5942 0 20.3746 0.0903059 20.2127 0.251051C20.0508 0.411797 19.9598 0.629814 19.9598 0.857143V2.12571H18.6821C18.4531 2.12571 18.2336 2.21602 18.0717 2.37677C17.9098 2.53751 17.8188 2.75553 17.8188 2.98286C17.8188 3.21019 17.9098 3.4282 18.0717 3.58895C18.2336 3.74969 18.4531 3.84 18.6821 3.84H19.9598V5.10857C19.9598 5.3359 20.0508 5.55392 20.2127 5.71466C20.3746 5.87541 20.5942 5.96571 20.8231 5.96571C21.0521 5.96571 21.2717 5.87541 21.4336 5.71466C21.5955 5.55392 21.6864 5.3359 21.6864 5.10857V3.84H22.9641C23.0775 3.84 23.1898 3.81783 23.2945 3.77475C23.3993 3.73168 23.4944 3.66854 23.5746 3.58895C23.6548 3.50936 23.7184 3.41487 23.7617 3.31087C23.8051 3.20688 23.8275 3.09542 23.8275 2.98286C23.8275 2.8703 23.8051 2.75884 23.7617 2.65484C23.7184 2.55085 23.6548 2.45636 23.5746 2.37677C23.4944 2.29717 23.3993 2.23404 23.2945 2.19096C23.1898 2.14789 23.0775 2.12571 22.9641 2.12571H21.6864V0.857143C21.6864 0.629814 21.5955 0.411797 21.4336 0.251051C21.2717 0.0903059 21.0521 0 20.8231 0Z" fill="white"/>
</svg>
