<svg width="30" height="30" viewBox="0 0 30 30" fill="none" xmlns="http://www.w3.org/2000/svg">
<path d="M28.2929 29.7071C28.6834 30.0976 29.3166 30.0976 29.7071 29.7071C30.0976 29.3166 30.0976 28.6834 29.7071 28.2929L28.2929 29.7071ZM29.7071 28.2929L21.5002 20.086L20.086 21.5002L28.2929 29.7071L29.7071 28.2929ZM23.1724 12.5862C23.1724 18.4328 18.4328 23.1724 12.5862 23.1724V25.1724C19.5374 25.1724 25.1724 19.5374 25.1724 12.5862H23.1724ZM12.5862 23.1724C6.73961 23.1724 2 18.4328 2 12.5862H0C0 19.5374 5.63504 25.1724 12.5862 25.1724V23.1724ZM2 12.5862C2 6.73961 6.73961 2 12.5862 2V0C5.63504 0 0 5.63504 0 12.5862H2ZM12.5862 2C18.4328 2 23.1724 6.73961 23.1724 12.5862H25.1724C25.1724 5.63504 19.5374 0 12.5862 0V2Z" fill="white"/>
</svg>
