<svg xmlns="http://www.w3.org/2000/svg" width="127" height="24" viewBox="0 0 127 24" fill="none">
  <path d="M12.3788 0.692598C12.4559 0.467013 12.7749 0.467012 12.852 0.692597L15.3899 8.12261C15.4245 8.22379 15.5196 8.2918 15.6265 8.2918H23.8119C24.0571 8.2918 24.1557 8.60806 23.954 8.74746L17.3538 13.3089C17.2617 13.3725 17.2232 13.4895 17.2593 13.5954L19.7854 20.9906C19.8633 21.2187 19.605 21.4141 19.4067 21.2771L12.7575 16.6818C12.672 16.6227 12.5588 16.6227 12.4733 16.6818L5.82408 21.2771C5.62575 21.4141 5.36744 21.2187 5.44537 20.9906L7.97145 13.5954C8.00761 13.4895 7.96904 13.3725 7.877 13.3089L1.27677 8.74746C1.07506 8.60806 1.17371 8.2918 1.41891 8.2918H9.60427C9.71119 8.2918 9.80628 8.22379 9.84085 8.12261L12.3788 0.692598Z" fill="white"/>
  <path d="M37.6096 0.692598C37.6866 0.467013 38.0057 0.467012 38.0827 0.692597L40.6207 8.12261C40.6553 8.22379 40.7503 8.2918 40.8573 8.2918H49.0426C49.2878 8.2918 49.3865 8.60806 49.1848 8.74746L42.5845 13.3089C42.4925 13.3725 42.4539 13.4895 42.4901 13.5954L45.0162 20.9906C45.0941 21.2187 44.8358 21.4141 44.6375 21.2771L37.9883 16.6818C37.9028 16.6227 37.7896 16.6227 37.704 16.6818L31.0549 21.2771C30.8565 21.4141 30.5982 21.2187 30.6761 20.9906L33.2022 13.5954C33.2384 13.4895 33.1998 13.3725 33.1078 13.3089L26.5075 8.74746C26.3058 8.60806 26.4045 8.2918 26.6497 8.2918H34.835C34.942 8.2918 35.0371 8.22379 35.0716 8.12261L37.6096 0.692598Z" fill="white"/>
  <path d="M62.8403 0.692598C62.9174 0.467013 63.2364 0.467012 63.3135 0.692597L65.8515 8.12261C65.886 8.22379 65.9811 8.2918 66.088 8.2918H74.2734C74.5186 8.2918 74.6172 8.60806 74.4155 8.74746L67.8153 13.3089C67.7233 13.3725 67.6847 13.4895 67.7209 13.5954L70.2469 20.9906C70.3249 21.2187 70.0666 21.4141 69.8682 21.2771L63.2191 16.6818C63.1335 16.6227 63.0203 16.6227 62.9348 16.6818L56.2856 21.2771C56.0873 21.4141 55.829 21.2187 55.9069 20.9906L58.433 13.5954C58.4691 13.4895 58.4306 13.3725 58.3385 13.3089L51.7383 8.74746C51.5366 8.60806 51.6352 8.2918 51.8804 8.2918H60.0658C60.1727 8.2918 60.2678 8.22379 60.3024 8.12261L62.8403 0.692598Z" fill="white"/>
  <path d="M88.0711 0.692598C88.1482 0.467013 88.4672 0.467012 88.5443 0.692597L91.0822 8.12261C91.1168 8.22379 91.2119 8.2918 91.3188 8.2918H99.5042C99.7494 8.2918 99.848 8.60806 99.6463 8.74746L93.0461 13.3089C92.954 13.3725 92.9155 13.4895 92.9516 13.5954L95.4777 20.9906C95.5556 21.2187 95.2973 21.4141 95.099 21.2771L88.4498 16.6818C88.3643 16.6227 88.2511 16.6227 88.1656 16.6818L81.5164 21.2771C81.3181 21.4141 81.0597 21.2187 81.1377 20.9906L83.6638 13.5954C83.6999 13.4895 83.6613 13.3725 83.5693 13.3089L76.9691 8.74746C76.7674 8.60806 76.866 8.2918 77.1112 8.2918H85.2966C85.4035 8.2918 85.4986 8.22379 85.5332 8.12261L88.0711 0.692598Z" fill="white"/>
  <path d="M113.302 0.692598C113.379 0.467013 113.698 0.467012 113.775 0.692597L116.313 8.12261C116.348 8.22379 116.443 8.2918 116.55 8.2918H124.735C124.98 8.2918 125.079 8.60806 124.877 8.74746L118.277 13.3089C118.185 13.3725 118.146 13.4895 118.182 13.5954L120.708 20.9906C120.786 21.2187 120.528 21.4141 120.33 21.2771L113.681 16.6818C113.595 16.6227 113.482 16.6227 113.396 16.6818L106.747 21.2771C106.549 21.4141 106.291 21.2187 106.368 20.9906L108.895 13.5954C108.931 13.4895 108.892 13.3725 108.8 13.3089L102.2 8.74746C101.998 8.60806 102.097 8.2918 102.342 8.2918H110.527C110.634 8.2918 110.729 8.22379 110.764 8.12261L113.302 0.692598Z" fill="white"/>
</svg>