<svg width="22" height="21" viewBox="0 0 22 21" fill="none" xmlns="http://www.w3.org/2000/svg">
<path d="M10.8191 0.44743C10.8927 0.214433 11.2224 0.214433 11.2959 0.44743L13.6196 7.80919C13.6525 7.91321 13.749 7.98393 13.858 7.98393H21.3928C21.6332 7.98393 21.7351 8.29014 21.5425 8.43414L15.4345 13.0023C15.3494 13.0659 15.3138 13.1764 15.3458 13.2777L17.6759 20.6598C17.749 20.8914 17.4823 21.0807 17.2878 20.9352L11.2073 16.3877C11.1185 16.3213 10.9966 16.3213 10.9078 16.3877L4.82729 20.9352C4.63279 21.0807 4.36605 20.8914 4.43915 20.6598L6.76927 13.2777C6.80126 13.1764 6.76569 13.0659 6.6806 13.0023L0.57252 8.43414C0.379985 8.29014 0.481826 7.98393 0.72225 7.98393H8.257C8.36608 7.98393 8.46257 7.91321 8.4954 7.80919L10.8191 0.44743Z" fill="#FBB040"/>
</svg>
