<svg width="24" height="19" viewBox="0 0 24 19" fill="none" xmlns="http://www.w3.org/2000/svg">
<g clip-path="url(#clip0_60_150)">
<path d="M24 2.79761C23.1075 3.15899 22.1565 3.39853 21.165 3.51484C22.185 2.95269 22.9635 2.0693 23.3295 1.00453C22.3785 1.52792 21.3285 1.89761 20.2095 2.10392C19.3065 1.21638 18.0195 0.666687 16.6155 0.666687C13.8915 0.666687 11.6985 2.70761 11.6985 5.20961C11.6985 5.56961 11.7315 5.91576 11.8125 6.2453C7.722 6.06115 4.1025 4.25146 1.671 1.49469C1.2465 2.17453 0.9975 2.95269 0.9975 3.79038C0.9975 5.3633 1.875 6.75761 3.183 7.56484C2.3925 7.55099 1.617 7.33915 0.96 7.00546C0.96 7.0193 0.96 7.0373 0.96 7.0553C0.96 9.26238 2.6655 11.0956 4.902 11.5179C4.5015 11.619 4.065 11.6675 3.612 11.6675C3.297 11.6675 2.979 11.6508 2.6805 11.5899C3.318 13.3885 5.127 14.7108 7.278 14.7538C5.604 15.9625 3.4785 16.6908 1.1775 16.6908C0.774 16.6908 0.387 16.6742 0 16.6285C2.1795 17.9259 4.7625 18.6667 7.548 18.6667C16.602 18.6667 21.552 11.7436 21.552 5.74269C21.552 5.54192 21.5445 5.34807 21.534 5.15561C22.5105 4.51592 23.331 3.71699 24 2.79761Z" fill="white"/>
</g>
<defs>
<clipPath id="clip0_60_150">
<rect width="24" height="18" fill="white" transform="translate(0 0.666687)"/>
</clipPath>
</defs>
</svg>
