<svg xmlns="http://www.w3.org/2000/svg" width="66" height="14" viewBox="0 0 66 14" fill="none">
  <path d="M11.0282 0H13.552V8.1833C13.552 12.4888 10.8608 14 6.95654 14C3.06618 14 0.375 12.4888 0.375 8.1833V0.327902C0.375 0.0997963 0.486552 0 0.709655 0H3.23351V8.05499C3.23351 10.6354 4.34902 11.7047 6.95654 11.7047C9.578 11.7047 10.6935 10.6354 10.6935 8.05499V0.327902C10.6935 0.0997963 10.8051 0 11.0282 0ZM39.5993 2.23829V5.68839H45.9856C46.0972 5.68839 46.139 5.74542 46.0972 5.85947L45.4 7.62729C45.3303 7.78411 45.2327 7.8554 45.0235 7.8554H41.2726C40.0455 7.8554 39.5993 8.24033 39.5993 9.08147V11.5193H48.2445C48.3561 11.5193 48.3979 11.5764 48.3561 11.6904L47.631 13.5295C47.5613 13.6864 47.4637 13.7576 47.2545 13.7576H37.7866C37.0615 13.7576 36.7826 13.501 36.7826 12.945V0.955193C36.7826 0.285132 37.1452 0 38.0934 0H48.2445C48.3561 0 48.3979 0.0570265 48.3561 0.156823L47.631 2.01018C47.5613 2.16701 47.4637 2.23829 47.2545 2.23829H39.5993ZM31.5815 9.95112C31.5815 12.7026 29.6852 13.7576 27.0219 13.7576H19.9662C19.2272 13.7576 18.9623 13.501 18.9623 12.945V0.955193C18.9623 0.285132 19.3109 0 20.273 0H26.004C28.5139 0 30.9401 0.441955 30.9401 3.49287C30.9401 4.80448 30.48 5.9165 29.3784 6.50102C30.8983 6.91446 31.5815 8.31161 31.5815 9.95112ZM21.7371 5.73116H26.2131C27.6912 5.73116 28.1095 5.14664 28.1095 3.94908C28.1095 2.75153 27.6912 2.18126 26.2131 2.18126H21.7371V5.73116ZM28.7509 9.6945C28.7509 8.42566 28.3187 7.79837 26.729 7.79837H23.4243C22.1973 7.79837 21.7371 8.1833 21.7371 9.02444V11.5764H26.729C28.3187 11.5764 28.7509 10.9491 28.7509 9.6945ZM65.8418 13.7576H63.2761C63.067 13.7576 62.9833 13.6721 62.8996 13.5295L60.1806 8.5112H57.6846C56.4575 8.5112 55.9974 8.89613 55.9974 9.73727V13.7576H53.5432C53.3201 13.7576 53.2086 13.6436 53.2086 13.4297V0.955193C53.2086 0.285132 53.5711 0 54.5193 0H60.2782C63.6387 0 65.6605 0.898167 65.6605 4.23422C65.6605 6.81466 64.4474 7.82688 62.9415 8.22607L65.9673 13.5153C66.0231 13.6008 66.0231 13.7576 65.8418 13.7576ZM62.8299 4.29124C62.8299 2.89409 62.4534 2.20978 60.6965 2.20978H55.9974V6.37271H60.6965C62.4534 6.37271 62.8299 5.70265 62.8299 4.29124Z" fill="white"/>
</svg>