<svg width="113" height="24" viewBox="0 0 113 24" fill="none" xmlns="http://www.w3.org/2000/svg">
<path d="M18.7626 0H23.0892V14.0285C23.0892 21.4094 18.4757 24 11.7826 24C5.11345 24 0.5 21.4094 0.5 14.0285V0.562118C0.5 0.171079 0.691231 0 1.07369 0H5.4003V13.8086C5.4003 18.2322 7.31261 20.0652 11.7826 20.0652C16.2766 20.0652 18.1889 18.2322 18.1889 13.8086V0.562118C18.1889 0.171079 18.3801 0 18.7626 0ZM67.7417 3.83707V9.75153H78.6897C78.8809 9.75153 78.9526 9.84929 78.8809 10.0448L77.6857 13.0754C77.5662 13.3442 77.3988 13.4664 77.0403 13.4664H70.6101C68.5066 13.4664 67.7417 14.1263 67.7417 15.5682V19.7475H82.5621C82.7533 19.7475 82.825 19.8452 82.7533 20.0407L81.5103 23.1935C81.3908 23.4623 81.2235 23.5845 80.8649 23.5845H64.6342C63.3912 23.5845 62.9131 23.1446 62.9131 22.1914V1.63747C62.9131 0.488798 63.5346 0 65.16 0H82.5621C82.7533 0 82.825 0.0977597 82.7533 0.268839L81.5103 3.44603C81.3908 3.71487 81.2235 3.83707 80.8649 3.83707H67.7417ZM53.9969 17.0591C53.9969 21.776 50.746 23.5845 46.1804 23.5845H34.085C32.8181 23.5845 32.3639 23.1446 32.3639 22.1914V1.63747C32.3639 0.488798 32.9615 0 34.6109 0H44.4354C48.7381 0 52.8973 0.757637 52.8973 5.98778C52.8973 8.23625 52.1085 10.1426 50.2201 11.1446C52.8256 11.8534 53.9969 14.2485 53.9969 17.0591ZM37.1208 9.82485H44.7939C47.3277 9.82485 48.0449 8.82281 48.0449 6.76986C48.0449 4.7169 47.3277 3.73931 44.7939 3.73931H37.1208V9.82485ZM49.1444 16.6191C49.1444 14.444 48.4034 13.3686 45.6784 13.3686H40.0131C37.9096 13.3686 37.1208 14.0285 37.1208 15.4705V19.8452H45.6784C48.4034 19.8452 49.1444 18.7699 49.1444 16.6191ZM112.729 23.5845H108.33C107.972 23.5845 107.829 23.4379 107.685 23.1935L103.024 14.5906H98.745C96.6415 14.5906 95.8527 15.2505 95.8527 16.6925V23.5845H91.6456C91.2631 23.5845 91.0719 23.389 91.0719 23.0224V1.63747C91.0719 0.488798 91.6934 0 93.3188 0H103.191C108.952 0 112.418 1.53971 112.418 7.25866C112.418 11.6823 110.338 13.4175 107.757 14.1018L112.944 23.169C113.04 23.3157 113.04 23.5845 112.729 23.5845ZM107.566 7.35642C107.566 4.9613 106.92 3.78819 103.908 3.78819H95.8527V10.9246H103.908C106.92 10.9246 107.566 9.77597 107.566 7.35642Z" fill="#718087"/>
</svg>
